<?xml version="1.0" encoding="UTF-8"?>
<svg width="358px" height="1120px" viewBox="0 0 358 1120" version="1.1" xmlns="http://www.w3.org/2000/svg" xmlns:xlink="http://www.w3.org/1999/xlink">
    <title>roadmap-graphic</title>
    <g id="Page-1" stroke="none" stroke-width="1" fill="none" fill-rule="evenodd">
        <g id="Artboard" transform="translate(-132.000000, -99.000000)">
            <g id="roadmap-graphic" transform="translate(132.000000, 99.000000)">
                <g id="Group-9" transform="translate(0.000000, 81.000000)">
                    <path d="M262.559732,1024 C292.126833,999.708291 311,962.798117 311,921.461054 C311,848.305062 251.901323,789 178.999785,789 C106.098247,789 47,848.305062 47,921.461054 C47,962.798117 65.8728444,999.708291 95.4398376,1024 C120.049664,1023.5128 148.580097,1023.2341 178.999785,1023.2341 C209.419472,1023.2341 237.949905,1023.5128 262.559732,1024" id="Fill-3" fill="#102C6B"></path>
                    <path d="M203.98211,1039 C169.094859,1039 138.960947,1037.81762 124.799979,1036.10654 C52.4382171,1035.29586 0,1032.90761 0,1030.08678 C0,1028.96636 8.27274871,1027.91322 22.7757636,1027.00107 C22.8692154,1027.15915 23.0304952,1027.2745 23.2264426,1027.30334 C29.7170389,1028.26569 36.2076352,1028.49533 42.6982315,1028.61389 C45.3607476,1028.66836 48.0226177,1028.68865 50.6850262,1028.68865 C54.5131064,1028.68865 58.3418325,1028.647 62.1699127,1028.60427 L71.9060225,1028.54553 L81.6409479,1028.54232 L295.829764,1028.54232 L305.565766,1028.54553 L310.433229,1028.59039 L315.301769,1028.66729 C315.944519,1028.67477 316.58727,1028.67904 317.23002,1028.67904 C319.832245,1028.67904 322.435546,1028.61389 325.037771,1028.48892 C328.282746,1028.28812 331.527721,1028.00507 334.773773,1027.30334 C334.948187,1027.26489 335.101069,1027.15487 335.191507,1027 C349.715301,1027.91215 358,1028.96529 358,1030.08678 C358,1032.10227 331.219804,1033.89773 289.523918,1035.05447 C280.527564,1037.31455 245.643543,1039 203.98211,1039" id="Fill-4" fill="#082158"></path>
                    <polyline id="Fill-5" fill="#FEF5E7" points="23 1026 335 1026 23 1026"></polyline>
                    <path d="M23.5387887,1025.38241 C30.0379399,1024.42241 36.5370912,1024.19334 43.0362424,1024.07507 C49.5352858,1023.94188 56.0343293,1024.0122 62.5335883,1024.08466 L72.2825308,1024.14326 L82.0302874,1024.14646 L296.501416,1024.14646 L306.25025,1024.14326 L311.124129,1024.09851 L315.999085,1024.02179 C319.248337,1023.98131 322.497589,1024.0431 325.74792,1024.19866 C328.997172,1024.40004 332.246424,1024.68133 335.496754,1025.38241 C335.841731,1025.45699 336.060576,1025.79368 335.985112,1026.13464 C335.930132,1026.38396 335.732848,1026.56722 335.496754,1026.61836 C332.246424,1027.31838 328.997172,1027.60073 325.74792,1027.80104 C322.497589,1027.9566 319.248337,1028.0184 315.999085,1027.97898 L311.124129,1027.90226 L306.25025,1027.85751 L296.501416,1027.85432 L82.0302874,1027.85432 L72.2825308,1027.85751 L62.5335883,1027.91612 C56.0343293,1027.9875 49.5352858,1028.05782 43.0362424,1027.92571 C36.5370912,1027.80744 30.0379399,1027.57836 23.5387887,1026.61836 C23.1935961,1026.56722 22.9555619,1026.24971 23.0069851,1025.90769 C23.0492448,1025.6296 23.2714315,1025.42183 23.5387887,1025.38241" id="Fill-6" fill="#001034"></path>
                    <path d="M92.8464609,930.315111 C97.5788025,919.228296 113.420874,919.228296 118.153215,930.315111 L159,1026 L52,1026 L92.8464609,930.315111" id="Fill-7" fill="#797F89"></path>
                    <path d="M54.4434062,1024.45408 L155.556935,1024.45408 L115.958929,930.815043 C114.062474,926.331072 109.863873,923.545916 104.999849,923.545916 C100.136898,923.545916 95.9372233,926.331072 94.0418424,930.815043 L54.4434062,1024.45408" id="Path" fill="#000072"></path>
                    <path d="M51.7706615,1028 C51.1770402,1028 50.622593,1027.70236 50.2944967,1027.207 C49.9666151,1026.71058 49.9085517,1026.08306 50.140269,1025.53613 L90.7801987,929.432136 C93.2401155,923.614685 98.6890674,920 104.999849,920 C111.31063,920 116.759582,923.613611 119.220572,929.432136 L159.859643,1025.53613 C160.091468,1026.08306 160.033512,1026.71058 159.705094,1027.207 C159.377749,1027.70236 158.822872,1028 158.229358,1028 L51.7706615,1028 Z" id="Path" fill="#000072"></path>
                    <path d="M98.5508262,945.63599 L103.426952,947.733873 C105.22735,948.508557 107.250769,948.417666 108.985128,947.485509 L111.966667,945.882241 C113.577607,945.015609 115.44188,944.872932 117.150256,945.485915 L124,947.941019 L116.28416,930.149709 C114.371168,925.739401 110.135954,923 105.229516,923 C100.32416,923 96.0878632,925.739401 94.1759544,930.149709 L86,949 L93.4181197,945.676151 C95.0582906,944.940572 96.9009117,944.926832 98.5508262,945.63599" id="Fill-9" fill="#FFF2E9"></path>
                    <path d="M86.2188359,1024 L59.5807866,1024 L60.9741974,1020.70945 C99.4446858,1009.49697 110.791925,972.615415 114.029829,948.261257 C114.541589,948.087446 115.070623,948 115.600736,948 C116.174036,948 116.748416,948.10148 117.306601,948.3066 L125.847801,951.442768 L140,985.46561 L132.469363,998.420523 C129.253052,996.802239 125.586523,995.926702 121.788275,995.926702 C110.784368,995.926702 101.672027,1003.16742 100.330008,1012.67525 C100.272786,1012.67417 100.214484,1012.67417 100.157262,1012.67417 C92.872788,1012.67417 86.8687919,1017.65857 86.2188359,1024 M55,1024 L55,1024 L55.8407322,1022.01466 L55.8409481,1022.01466 L55.000108,1024" id="Fill-10" fill="#545982"></path>
                    <path d="M85.9881256,1026 L51,1026 L53.3741237,1022.44831 C54.1328976,1022.30802 54.88649,1022.15823 55.6266967,1022 L54.7860974,1023.93987 L86,1023.93987 C85.9622178,1024.30802 85.9417075,1024.68038 85.9417075,1025.05696 C85.9417075,1025.35232 85.9568204,1025.66139 85.9881256,1026" id="Fill-11" fill="#000072"></path>
                    <path d="M124,948 L117.763955,945.694777 C116.944179,945.391909 116.087188,945.24208 115.230197,945.24208 C114.818713,945.24208 114.40723,945.276327 114,945.34589 C114.008506,945.264555 114.018075,945.18643 114.026582,945.105094 C114.422116,945.025899 114.822967,944.985231 115.223817,944.985231 C115.934078,944.985231 116.645401,945.111515 117.33227,945.365154 L123.917065,947.798801 L124,948 M117.177033,931.48994 L116.481659,929.835402 C116.2084,929.186858 115.888357,928.5747 115.523658,928 C115.888357,928.5747 116.2084,929.186858 116.481659,929.835402 L117.171717,931.474957 L117.177033,931.48994" id="Fill-12" fill="#545982"></path>
                    <path d="M118,932 L117.128079,930.28763 C116.782803,929.610283 116.378415,928.970939 115.9176,928.370715 C115.652933,928.025335 115.369458,927.693368 115.068518,927.374814 C115.036274,926.480626 115,926 115,926 L118,932" id="Fill-13" fill="#000072"></path>
                    <path d="M124,949 L117.342292,946.537311 C116.647818,946.280646 115.928618,946.152854 115.210492,946.152854 C114.805203,946.152854 114.399914,946.194008 114,946.274148 C114.972909,937.511784 114.917007,930.744263 114.834229,928 C115.075038,928.308648 115.301871,928.630292 115.513653,928.964932 C115.882391,929.546491 116.205977,930.165953 116.482262,930.822237 L117.185336,932.496519 L124,949" id="Fill-14" fill="#B2A9C5"></path>
                    <path d="M56,1021 L86.5652034,948.683868 L92.2000424,946.093263 L92.1347699,946.24975 L93.371738,945.68061 C94.3572463,945.227227 95.4176575,945 96.4791388,945 C97.5010285,945 98.5239883,945.21115 99.4795355,945.632378 L104.297933,947.759953 C104.935678,948.040772 105.608734,948.181181 106.28072,948.181181 C107.102512,948.181181 107.923234,947.972175 108.674403,947.557378 L111.621298,945.930345 C112.372467,945.51662 113.176068,945.239017 114,945.100752 C113.900486,945.972147 113.791342,946.86605 113.670427,947.776031 C113.386866,947.871423 113.108655,947.994683 112.839005,948.143667 L109.89104,949.769628 C108.758936,950.394503 107.521968,950.708548 106.28179,950.708548 C105.26525,950.708548 104.245501,950.497398 103.281393,950.071883 L98.465136,947.945379 C97.8316714,947.666704 97.1554051,947.526295 96.4780688,947.526295 C95.7771915,947.526295 95.0752442,947.676351 94.4235889,947.976462 C92.0127852,949.084731 90.1027609,951.05582 89.0680307,953.502799 L84.8231756,963.545814 C85.5454537,965.809511 85.3924378,968.805266 84.1972013,971.764579 C82.9356222,974.890025 80.8126597,977.238397 78.5923234,978.288787 L61.0875128,1019.70416 C59.4415748,1020.18434 57.7475919,1020.61736 56,1021" id="Fill-15" fill="#BCBFC4"></path>
                    <path d="M106.22,923 C106.15,923 106.08,923 106,923 C106.08,923 106.15,923 106.22,923" id="Fill-16" fill="#8080B9"></path>
                    <path d="M87,949 L94.97586,930.149709 C96.8409777,925.739401 100.973597,923 105.758902,923 C105.767351,923 105.774744,923 105.782136,923 C105.786361,923 105.789529,923 105.793754,923 C105.795866,923 105.795866,923 105.796922,923 C106.550996,923.002114 107.285003,923.079265 108,923.213487 C104.190555,923.92793 101.023235,926.446445 99.4559445,930.149709 L92.561557,946.445551 L87,949" id="Fill-17" fill="#FFF9F4"></path>
                    <polyline id="Fill-18" fill="#BCBFC4" points="125 952 124.884505 951.940457 124 949 124.097561 949.048627 125 952"></polyline>
                    <path d="M59.6005711,1024 L55,1024 L55.8445802,1022.18996 C57.6154986,1021.83858 59.3320924,1021.44094 61,1021 L59.6005711,1024" id="Fill-19" fill="#AAACC1"></path>
                    <path d="M126,951 L117.327243,947.853791 C116.76046,947.648014 116.177234,947.546209 115.595103,947.546209 C115.056824,947.546209 114.519642,947.633935 114,947.808303 C114.123881,946.888809 114.235703,945.98556 114.337658,945.105054 C114.757537,945.034657 115.181802,945 115.606066,945 C116.489677,945 117.373287,945.151625 118.218527,945.458123 L124.648273,947.790975 L126,951" id="Fill-20" fill="#AAACC1"></path>
                    <path d="M83.2849496,952 C82.7981638,952 82.3331581,951.709984 82.1175348,951.218664 C81.8213251,950.54651 82.1044667,949.750389 82.7480695,949.442177 L92.5839748,944.726865 C94.5518092,943.782893 96.8180314,943.763559 98.800023,944.675686 L103.703819,946.933258 C105.144574,947.596313 106.768282,947.516701 108.157854,946.718305 L111.156978,944.992997 C113.089964,943.879565 115.377966,943.693045 117.432921,944.481205 L127.158837,948.211601 C127.82422,948.467497 128.165079,949.23746 127.921142,949.93236 C127.676115,950.62726 126.938858,950.984377 126.273475,950.728481 L116.548648,946.998085 C115.172144,946.470371 113.696541,946.592063 112.396267,947.340417 L109.396055,949.065725 C107.299717,950.272417 104.847275,950.388423 102.669262,949.385311 L97.7643779,947.128876 C96.4357902,946.517 94.9754327,946.529511 93.654468,947.162996 L83.8196517,951.878307 C83.6454107,951.961331 83.4635467,952 83.2849496,952" id="Fill-21" fill="#000072"></path>
                    <path d="M277.750817,1012.69715 C278.595789,1010.88357 276.224902,993.766892 259.691284,992.999566 C256.249883,992.999566 253.041577,993.877595 250.331838,995.388369 C247.586487,992.923593 243.914148,991.267385 239.811229,990.857132 C238.310135,983.647308 231.158625,978.183775 222.555661,978.183775 C219.390521,978.183775 216.422866,978.925053 213.858812,980.218762 C212.992256,980.657234 211.98757,980.687623 211.060582,980.400012 C211.005546,980.382647 210.94943,980.366367 210.894393,980.350087 C210.049421,980.09612 209.296176,979.581676 208.817035,978.838227 C205.79758,974.157214 200.097523,971 193.558968,971 C186.674008,971 180.719272,974.499092 177.844423,979.591444 C175.165979,978.130594 172.011631,977.285125 168.631741,977.285125 C158.938838,977.285125 151.080486,984.220361 151.080486,992.774903 C151.080486,993.23074 151.107465,993.681151 151.15171,994.12722 C145.154888,995.340615 140.181097,998.916765 137.563085,1003.69112 C133.876717,999.765491 128.311554,997.264899 122.083794,997.264899 C111.294477,997.264899 102.492951,1004.77102 102.01273,1014.18948 C101.504451,1014.13413 100.988619,1014.10157 100.463074,1014.10157 C93.5802716,1014.10157 88,1019.02678 88,1025.10244 C88,1025.40416 88.0172664,1025.70371 88.044245,1026 L304,1026 C301.652854,1018.36907 291.486206,1008.60439 277.750817,1012.69715" id="Fill-22" fill="#E0E0E0"></path>
                    <path d="M275.850318,1012.53117 C275.844923,1012.54309 275.83845,1012.5561 275.831977,1012.57019 C275.83845,1012.55718 275.843844,1012.54417 275.850318,1012.53117 M89.0769801,1024.93333 L301.218141,1024.93333 C298.213446,1018.80759 289.638468,1011.08618 277.665002,1014.65041 C277.088878,1014.82385 276.466361,1014.63848 276.074726,1014.18103 C275.699274,1013.74201 275.603253,1013.13062 275.820109,1012.59837 C276.065016,1011.52737 275.406896,1006.19187 272.114139,1001.70949 C269.058736,997.550136 264.693568,995.306233 259.141625,995.04065 C256.092696,995.04607 253.124684,995.803794 250.559095,997.233604 C249.991601,997.550136 249.28709,997.471003 248.80267,997.036314 C246.230608,994.728455 242.801912,993.256369 239.150965,992.892141 C238.487451,992.826016 237.944771,992.336043 237.807753,991.681301 C236.425701,985.052575 229.799189,980.241734 222.049558,980.241734 C219.234747,980.241734 216.46525,980.887805 214.039916,982.111653 C212.857458,982.708943 211.460302,982.806504 210.108459,982.388076 L209.960652,982.343631 C208.727486,981.9729 207.689599,981.211924 207.034716,980.19729 C204.194011,975.798374 198.839505,973.066667 193.059918,973.066667 C186.909195,973.066667 181.397171,976.057453 178.676223,980.871545 C178.266247,981.597832 177.352431,981.861247 176.622026,981.462331 C174.080173,980.076965 171.145606,979.344173 168.138753,979.344173 C159.304842,979.344173 152.118389,985.596748 152.118389,993.282385 C152.118389,993.655285 152.138888,994.04878 152.180965,994.482385 C152.257566,995.266125 151.73107,995.980488 150.963982,996.135501 C145.523165,997.235772 140.831094,1000.52141 138.413313,1004.92575 C138.178116,1005.35501 137.753035,1005.64444 137.269695,1005.70623 C136.785276,1005.76911 136.301935,1005.5935 135.967481,1005.23794 C132.421186,1001.4645 127.184278,999.299729 121.602127,999.299729 C111.647255,999.299729 103.501673,1006.08564 103.05933,1014.74905 C103.037752,1015.17073 102.844632,1015.56423 102.525282,1015.83848 C102.205932,1016.11165 101.787324,1016.23848 101.370875,1016.19512 C100.896165,1016.14309 100.430087,1016.11707 99.9866654,1016.11707 C94.2049206,1016.11707 89.4567476,1020.01626 89.0769801,1024.93333 M303.47409,1028 L87.5719355,1028 C86.7832705,1028 86.1251507,1027.39729 86.0517865,1026.60921 C86.0172622,1026.23415 86,1025.89377 86,1025.57073 C86,1018.66667 92.2747953,1013.05041 99.9866654,1013.05041 C100.043846,1013.05041 100.102106,1013.05041 100.159287,1013.05149 C101.500341,1003.50461 110.606131,996.234146 121.602127,996.234146 C127.323454,996.234146 132.747009,998.231978 136.776644,1001.77127 C139.578509,997.725745 143.928573,994.765312 149.067303,993.428726 C149.066224,993.379946 149.066224,993.331165 149.066224,993.282385 C149.066224,983.906775 157.621782,976.278591 168.138753,976.278591 C171.158552,976.278591 174.12117,976.913821 176.790332,978.125745 C180.243843,973.079675 186.343859,970 193.059918,970 C199.862288,970 206.19858,973.268293 209.593831,978.527913 C209.854921,978.932249 210.292948,979.24336 210.826996,979.40271 L211.008249,979.457995 C211.603794,979.642276 212.193944,979.61084 212.670811,979.371274 C215.519067,977.934959 218.762196,977.175068 222.049558,977.175068 C230.819815,977.175068 238.403298,982.496477 240.52978,989.977236 C244.048024,990.513821 247.353728,991.936043 250.020731,994.060705 C252.820438,992.692683 255.964309,991.973984 259.177229,991.973984 C259.199885,991.973984 259.223621,991.973984 259.247356,991.976152 C268.3197,992.396748 273.184393,997.409214 275.667986,1001.54038 C277.67687,1004.8813 278.676996,1008.62656 278.861486,1011.19024 C292.06488,1008.44878 302.382258,1017.73117 304.931663,1026.01409 C305.075155,1026.47913 304.989923,1026.98428 304.701861,1027.37669 C304.414877,1027.76911 303.958509,1028 303.47409,1028" id="Fill-23" fill="#000072"></path>
                    <path d="M278,1025 L265.898173,1025 C264.304972,1022.87492 256.665192,1013.86061 241.653334,1013.86061 C241.634909,1013.86061 241.617568,1013.86061 241.599143,1013.86061 C241.481008,1013.72456 241.345532,1013.6101 241.198133,1013.51831 C240.749436,1011.36084 239.494383,1007.75857 235.986089,1004.761 L236.177923,999.29389 C240.074222,1001.06263 243.690897,1003.5894 246.397172,1007.18411 C246.397172,1007.18411 247.109235,1007.04265 248.39897,1007.04265 C252.969398,1007.04265 264.80786,1008.82327 278,1025 M201.88291,1004.22649 L193,989 C196.745649,989.385494 205.512591,990.76658 210.633596,995.476739 C210.633596,995.476739 212.367692,995.300729 215.117319,995.300729 C215.355758,995.300729 215.600699,995.301809 215.853227,995.305048 L216.003876,999.59084 C212.644064,999.744173 206.819667,1000.58427 201.88291,1004.22649" id="Fill-24" fill="#BFBFD0"></path>
                    <path d="M278,1026 L265.549807,1026 C265.572226,1025.76119 265.487887,1025.51846 265.302127,1025.31186 C265.270099,1025.2773 265.170814,1025.16811 265,1025 L276.92067,1025 C277.279379,1025.326 277.639156,1025.65829 278,1026" id="Fill-25" fill="#000072"></path>
                    <path d="M272,1001 C269.232315,998.661995 265.773795,997.377027 261.666802,997.17917 C258.597149,997.184666 255.610048,997.954108 253.025933,999.403957 C252.793483,999.534762 252.537135,999.598516 252.281874,999.598516 C251.912559,999.598516 251.546504,999.464413 251.258656,999.203902 C248.668024,996.863699 245.217108,995.370981 241.540258,995.001649 C240.87332,994.934597 240.325866,994.437758 240.187916,993.773839 C240.134691,993.512229 240.069518,993.255015 240,993 C243.416158,993.44188 246.612899,994.843364 249.064494,997.001099 C249.06558,997.001099 249.066667,997.002198 249.067753,997.003298 C249.075356,997.010992 249.084046,997.018686 249.092736,997.025282 C249.097081,997.029678 249.100339,997.032976 249.104684,997.036274 C249.110115,997.04177 249.115547,997.046167 249.120978,997.050563 C249.129667,997.059357 249.139443,997.067051 249.148133,997.075845 C249.149219,997.075845 249.149219,997.075845 249.149219,997.076944 C249.169857,997.094531 249.190496,997.113218 249.210048,997.130805 C249.275221,997.189063 249.343652,997.241825 249.414257,997.286892 C249.663001,997.445177 249.94759,997.526518 250.234352,997.526518 C250.421181,997.526518 250.610183,997.491344 250.789409,997.420995 C250.853496,997.395713 250.916497,997.366035 250.978411,997.33086 C253.561439,995.881011 256.549627,995.112668 259.61928,995.107172 C260.404616,995.144545 261.166056,995.221489 261.903598,995.339104 C261.905771,995.339104 261.907943,995.339104 261.910115,995.340203 C261.915547,995.340203 261.922064,995.341303 261.927495,995.342402 C261.934012,995.343501 261.94053,995.3446 261.947047,995.345699 C261.948133,995.345699 261.949219,995.345699 261.949219,995.345699 C266.06816,996.009618 269.436524,997.904644 272,1001" id="Fill-26" fill="#F0F0F0"></path>
                    <path d="M249.718517,997 C249.783429,996.978158 249.847241,996.952517 249.909953,996.922127 C252.526236,995.669516 255.551794,995.005698 258.662068,995 C259.457515,995.033238 260.228758,995.099715 260.975796,995.20133 C260.228758,995.099715 259.457515,995.033238 258.662068,995.00095 C255.552894,995.005698 252.526236,995.669516 249.909953,996.922127 C249.847241,996.952517 249.783429,996.978158 249.718517,997 M248.32566,996.884141 C248.254147,996.845204 248.184834,996.79962 248.118822,996.749288 C248.099018,996.734093 248.078114,996.717949 248.057211,996.702754 C248.078114,996.717949 248.099018,996.734093 248.118822,996.749288 C248.184834,996.79962 248.254147,996.845204 248.32566,996.884141 M248.05611,996.7049 C248.047309,996.6969 248.037407,996.6899 248.028605,996.6819 C248.037407,996.6899 248.047309,996.6969 248.05611,996.7049 M248.012102,996.670385 C248.007701,996.667385 248.004401,996.664385 248,996.660385 C248.003301,996.664385 248.007701,996.667385 248.012102,996.670385 M261,995.206745 C260.994499,995.205745 260.987898,995.204745 260.982397,995.204745 C260.987898,995.204745 260.994499,995.205745 261,995.206745" id="Fill-27" fill="#8080B9"></path>
                    <path d="M214.161558,985 C213.968987,985 213.774252,984.966469 213.590335,984.898422 C212.673999,984.56213 211.717634,984.293886 210.748287,984.102564 C210.30797,984.014793 209.931482,983.754438 209.720519,983.390533 C209.504147,983.016765 209.257483,982.657791 209,982.30572 C209.868734,982.49211 210.725568,982.736686 211.551028,983.039448 C211.734944,983.106509 211.928597,983.140039 212.12225,983.140039 C212.399207,983.140039 212.675081,983.071992 212.917418,982.936884 C213.288496,982.731755 213.667147,982.539448 214.054454,982.359961 C214.070682,982.353057 214.086909,982.346154 214.103137,982.338264 C214.362784,982.219921 214.626758,982.106509 214.892896,982 L215,984.773176 C214.985936,984.781065 214.971872,984.788955 214.957807,984.796844 C214.714389,984.930966 214.438514,985 214.161558,985" id="Fill-28" fill="#F0F0F0"></path>
                    <path d="M214,982.15448 C214.329032,982.045584 214.661935,981.942597 215,981.84552 L215,981.846364 C214.682581,981.937533 214.367742,982.03461 214.058065,982.135909 C214.03871,982.142662 214.019355,982.148571 214,982.15448" id="Fill-29" fill="#8080B9"></path>
                    <path d="M89.6538788,1023 C89.4377205,1023 89.2183199,1022.99785 89,1022.9957 C90.1240231,1018.83818 94.4817743,1015.73079 99.671735,1015.73079 C100.053254,1015.73079 100.450986,1015.74909 100.856282,1015.78782 C100.895191,1015.79105 100.93518,1015.79535 100.97517,1015.79966 C101.00327,1015.80181 101.03029,1015.80504 101.05839,1015.80826 C101.061633,1015.80826 101.063794,1015.80826 101.067037,1015.80934 C101.118915,1015.81472 101.171874,1015.81687 101.223752,1015.81687 C101.251852,1015.81687 101.278872,1015.8158 101.306972,1015.81472 C101.326427,1015.81795 101.345881,1015.8201 101.365335,1015.8244 C101.497192,1015.84054 101.633372,1015.87282 101.770632,1015.89972 C102.044072,1015.96535 102.323997,1016.04175 102.599599,1016.13966 C103.150803,1016.33441 103.704168,1016.57973 104.227271,1016.89606 C104.341835,1016.96492 104.456399,1017.03701 104.569882,1017.11018 C104.48558,1017.24898 104.379663,1017.37487 104.25321,1017.48246 C103.975447,1017.7181 103.623109,1017.84614 103.261043,1017.84614 C103.207004,1017.84614 103.151884,1017.84291 103.096763,1017.83753 C102.612569,1017.78481 102.158636,1017.75898 101.710108,1017.75898 C97.4301735,1017.75898 93.7219779,1019.8754 91.9224601,1022.94943 C91.1799564,1022.98278 90.4244832,1022.99892 89.6538788,1023 M104.887635,1015.30471 C104.557993,1014.91521 104.194847,1014.54831 103.804682,1014.19862 C103.532322,1013.9533 103.240508,1013.7252 102.935725,1013.50247 C102.90114,1013.4788 102.865474,1013.45513 102.829808,1013.43039 C103.752804,1005.66408 111.002753,999.6204 120.005746,999.078115 C120.021958,999.077039 120.038169,999.075963 120.054381,999.075963 C120.168945,999.068431 120.282428,999.063051 120.396992,999.058748 C120.497506,999.054444 120.5991,999.05014 120.700695,999.047988 C120.908207,999.041532 121.116799,999.038304 121.325392,999.038304 C123.484813,999.038304 125.593438,999.358941 127.572367,999.967936 C127.400521,1000.33054 127.168151,1000.79966 126.870933,1001.35378 C125.725294,1001.16441 124.552635,1001.06757 123.363765,1001.06757 C113.819295,1001.06757 105.936002,1007.23714 104.887635,1015.30471 M206,978.855391 C203.06349,976.450613 199.126166,975.02819 194.946746,975.02819 C191.622231,975.02819 188.484693,975.893264 185.87134,977.439423 L184.474957,975.049709 C186.953212,973.730579 189.852975,973 192.909454,973 C193.315831,973 193.718967,973.012912 194.121021,973.039811 C194.122102,973.039811 194.124263,973.039811 194.125344,973.039811 C194.129667,973.039811 194.13399,973.040887 194.138314,973.040887 C198.908927,973.360448 203.256951,975.522057 206,978.855391" id="Fill-30" fill="#F0F0F0"></path>
                    <path d="M101.403181,1016 C101.39992,1015.99892 101.397746,1015.99892 101.394485,1015.99892 C101.366226,1015.99568 101.339054,1015.99243 101.310795,1015.99027 C101.339054,1015.99243 101.366226,1015.99568 101.394485,1015.99892 C101.397746,1015.99892 101.39992,1015.99892 101.403181,1016 M101.191236,1015.97838 C100.783651,1015.93948 100.383674,1015.9211 100,1015.9211 C100.388021,1015.9211 100.779303,1015.93948 101.191236,1015.97838 M103.175905,1013.61045 L103.175905,1013.61045 C104.104113,1005.80956 111.395,999.73896 120.44883,999.194259 C111.395,999.73896 104.104113,1005.80956 103.175905,1013.61045 M120.49774,999.192098 C120.612951,999.184533 120.727075,999.179129 120.842286,999.174806 C120.727075,999.179129 120.612951,999.184533 120.49774,999.192098 M121.147703,999.163998 C121.356387,999.157514 121.566158,999.154271 121.775928,999.154271 C121.566158,999.154271 121.356387,999.157514 121.147703,999.163998 M185.282078,975.058838 L185.282078,975.058838 C187.774326,973.733833 190.690464,973 193.764201,973 C194.172873,973 194.579372,973.012969 194.98261,973.039988 C194.578285,973.012969 194.172873,973 193.764201,973 C190.690464,973 187.774326,973.733833 185.282078,975.058838 M195,973.041069 C194.995652,973.041069 194.991305,973.039988 194.986957,973.039988 C194.991305,973.039988 194.995652,973.041069 195,973.041069" id="Fill-31" fill="#8080B9"></path>
                    <g id="Group-8" transform="translate(211.000000, 50.000000)">
                        <polygon id="Fill-32" fill="#E0E0E0" points="5.99995921 948.638889 1 6.68055556 27 6.68055556 22.0000408 948.638889"></polygon>
                        <path d="M7.91776316,942 L21.0822368,942 L26,20 L3,20 L7.91776316,942 M22.5004083,962 L6.50052046,962 C5.69230604,962 5.02940051,957.778832 5.00076299,952.46044 L0.000864326005,10.2314404 C-0.012924109,7.55477258 0.138748676,4.94799166 0.420881269,3.01911356 C0.704074511,1.09023545 1.09333264,0 1.50062179,0 L27.500307,0 C27.9065355,0 28.2968542,1.09023545 28.5789868,3.01911356 C28.8621801,4.94799166 29.0138529,7.55477258 28.9990038,10.2314404 L23.9991051,952.46044 C23.9704676,957.778832 23.3075621,962 22.5004083,962" id="Fill-33" fill="#000072"></path>
                        <path d="M8,915 C7.99881432,915 8,915 7.99881432,915 L7.99288594,914.328579 L8,915 M7.16291202,830.342146 L4.068295,517.136623 L7.16291202,830.33795 L7.16291202,830.342146 M3.73511975,483.334749 L3,409 L3.73511975,483.334749" id="Fill-35" fill="#8080B9"></path>
                        <path d="M10,966.049174 L10,772.098856 C20.9622082,631.041033 25.5886589,104.570965 25.9586628,31.7326389 C22.7267117,631.577546 21.1107361,943.016391 21.1107361,966.049174 C21.1107361,1000.28222 10.4551024,966.306493 10,966.049174 Z" id="Fill-133" fill="#B3B3CA"></path>
                        <path d="M22.9873808,930 C22.413842,928.385339 21.7897285,926.837607 21.1107361,925.381903 L25.7550012,409 L27,409 L22.9873808,930 M7.28447053,912.723966 C6.36874541,912.075592 5.81134752,911.732581 5.81134752,911.732581 L5,832.321389 C5.52404011,831.673015 6.03516752,830.556138 6.53123013,829.004223 L7.28447053,912.723966" id="Fill-134" fill="#000072"></path>
                    </g>
                    <path d="M174,1025.94643 C179.133883,1014.97356 196.627636,1013.59686 196.627636,1013.59686 C202.269385,999.443123 218.738743,1001.05552 218.738743,1001.05552 C240.008461,1001.05552 240.008461,1015.24033 240.008461,1015.24033 C257.243408,1014.43788 265,1026 265,1026 L174,1025.94643" id="Fill-36" fill="#E0E0E0"></path>
                    <path d="M176.18773,1023.91965 L261.162176,1023.96997 C257.989364,1020.82217 251.019349,1015.71074 239.56606,1016.24608 C239.152685,1016.27071 238.740393,1016.11439 238.437396,1015.82959 C238.135481,1015.54372 237.963422,1015.14756 237.963422,1014.73321 C237.959093,1014.22357 237.608482,1002.07241 218.239395,1002.07241 C218.188534,1002.07241 218.138756,1002.0692 218.088978,1002.06492 C217.46567,1002.0073 202.70322,1000.75868 197.566337,1013.64647 C197.352075,1014.18288 196.846719,1014.55334 196.265614,1014.60045 C196.111951,1014.61222 182.032327,1015.83494 176.18773,1023.91965 M264.469173,1027 L264.469173,1027 L173.530013,1026.94647 C173.007343,1026.94647 172.521465,1026.68308 172.241193,1026.24731 C171.959838,1025.81154 171.921964,1025.2655 172.141637,1024.79654 C176.936565,1014.54798 191.228288,1012.14645 195.080679,1011.67963 C201.144949,998.098043 216.951657,998.946022 218.298912,999.043454 C236.47549,999.067009 240.116865,1009.22242 240.844058,1013.18072 C257.729652,1013.00834 265.417121,1024.16163 265.745007,1024.64878 C266.056661,1025.11346 266.084796,1025.7109 265.81751,1026.20234 C265.551305,1026.69379 265.032964,1027 264.469173,1027" id="Fill-37" fill="#000072"></path>
                    <path d="M204.412336,1009 L203,1006.45906 C206.281065,1003.76467 210.078943,1002.66908 213.035245,1002.24823 C214.414134,1002.05077 215.610682,1002 216.483546,1002 C217.216148,1002 217.722172,1002.03611 217.917461,1002.05303 C217.947671,1002.05529 217.971408,1002.05754 217.986513,1002.0598 C218.036145,1002.06431 218.085776,1002.0677 218.136486,1002.0677 C219.539112,1002.0677 220.843553,1002.1354 222.053048,1002.26064 C222.057364,1002.26064 222.06168,1002.26177 222.065995,1002.26177 C222.069232,1002.26289 222.074627,1002.26289 222.078943,1002.26289 C227.215789,1002.8011 230.670563,1004.38636 233,1006.27853 C230.11275,1004.62782 226.013846,1003.45213 220.170293,1003.45213 C220.120662,1003.45213 220.069951,1003.44987 220.02032,1003.44423 C219.911347,1003.43295 219.366481,1003.38443 218.515195,1003.38443 C217.130912,1003.38443 214.936342,1003.51418 212.483906,1004.14829 C211.764251,1005.29916 210.412336,1006.54142 208.688186,1007.52418 C207.171192,1008.38846 205.650962,1008.88717 204.412336,1009" id="Fill-38" fill="#F0F0F0"></path>
                    <path d="M222,1003 C221.995852,1003 221.990666,1003 221.987555,1002.99462 C221.991703,1003 221.995852,1003 222,1003 M221.97511,1002.98925 C220.812549,1002.39247 219.558724,1002.06989 218.210526,1002.06989 C218.161784,1002.06989 218.114078,1002.05376 218.066373,1002.03226 C218.114078,1002.05376 218.161784,1002.06989 218.210526,1002.06989 C219.559761,1002.06989 220.811512,1002.39247 221.97511,1002.98925 M218.066373,1002.03226 C218.051854,1002.02151 218.029038,1002.01075 218,1002 C218.029038,1002.01075 218.051854,1002.02151 218.066373,1002.03226" id="Fill-39" fill="#8080B9"></path>
                    <polyline id="Fill-136" fill="#6666AB" points="218 999 218 999 217 977.001099 217 977 218 999"></polyline>
                    <path d="M233.969188,1005 C232.578241,1002.68186 223.523879,1000.80507 219,1000 C219.71088,1000.02043 220.399751,1000.05721 221.064412,1000.10727 C225.780867,1000.46077 229.360575,1001.5141 232.080845,1002.90764 C232.775218,1003.26318 233.413469,1003.64119 234,1004.03555 L233.969188,1005" id="Fill-137" fill="#000072"></path>
                    <path d="M102.912673,1013.06276 C103.065388,1013.13015 103.132201,1013.17355 103.226587,1013.23065 C103.316732,1013.28319 103.401574,1013.33687 103.482173,1013.39169 C103.648675,1013.49905 103.79927,1013.61555 103.953045,1013.72862 C104.252113,1013.96504 104.538454,1014.20717 104.805706,1014.46757 C105.339149,1014.98495 105.822747,1015.54002 106.23529,1016.14192 C106.646773,1016.74267 107.014774,1017.3617 107.298995,1018.01728 C107.600183,1018.66029 107.813348,1019.33643 108,1020 C107.590638,1019.45635 107.171732,1018.9424 106.697678,1018.5004 C106.240593,1018.04469 105.731542,1017.66551 105.22037,1017.33087 C104.707077,1016.99508 104.164089,1016.73468 103.623223,1016.52795 C103.35279,1016.42402 103.078114,1016.34293 102.809802,1016.27326 C102.675116,1016.24471 102.54149,1016.21045 102.412106,1016.19331 C102.346354,1016.18075 102.283783,1016.17161 102.223333,1016.16705 C102.170307,1016.16248 102.087586,1016.1522 102.088647,1016.16819 C101.292194,1015.92377 100.830867,1015.02949 101.057818,1014.17176 C101.285831,1013.31403 102.11622,1012.81721 102.912673,1013.06276" id="Fill-139" fill="#000072"></path>
                    <path d="M195.912236,1012.06276 C196.064965,1012.13015 196.131783,1012.17469 196.227239,1012.23065 C196.31633,1012.28319 196.401179,1012.33687 196.481786,1012.39169 C196.648302,1012.50019 196.798909,1012.61555 196.952698,1012.72976 C197.252852,1012.96504 197.538157,1013.20717 197.805432,1013.46757 C198.33892,1013.98495 198.82256,1014.54002 199.235139,1015.14192 C199.646657,1015.74382 200.01469,1016.3617 200.298934,1017.01728 C200.600149,1017.66029 200.814393,1018.33643 201,1019 C200.590603,1018.45635 200.171661,1017.9424 199.697566,1017.5004 C199.240442,1017.04583 198.731347,1016.66551 198.220132,1016.33087 C197.707855,1015.99508 197.16376,1015.73468 196.622847,1015.5291 C196.352391,1015.42516 196.077692,1015.34407 195.809357,1015.27326 C195.674659,1015.24471 195.541022,1015.21159 195.411627,1015.19331 C195.345869,1015.18075 195.283292,1015.17276 195.222837,1015.16705 C195.170867,1015.16248 195.087079,1015.1522 195.08814,1015.16933 C194.291619,1014.92377 193.830252,1014.02949 194.058284,1013.17176 C194.285255,1012.31403 195.115716,1011.81721 195.912236,1012.06276" id="Fill-140" fill="#000072"></path>
                    <path d="M238.931843,1016.62923 C238.885607,1016.61685 238.736624,1016.65848 238.62874,1016.6911 C238.509554,1016.72373 238.38934,1016.76761 238.267072,1016.81148 C238.023562,1016.90374 237.78108,1017.01399 237.539625,1017.13774 C237.056715,1017.38525 236.591272,1017.69801 236.155626,1018.0704 C235.717925,1018.44054 235.305911,1018.86918 234.948352,1019.36532 C234.573327,1019.85021 234.279471,1020.40935 234,1021 C234.044181,1020.34635 234.116104,1019.66458 234.301048,1019.00418 C234.46647,1018.33591 234.719227,1017.68226 235.036714,1017.05562 C235.352147,1016.42559 235.73642,1015.82482 236.183368,1015.26905 C236.406328,1014.99117 236.643673,1014.72229 236.899513,1014.46465 C237.028973,1014.33752 237.158434,1014.20927 237.300225,1014.08551 C237.44818,1013.95726 237.563256,1013.85151 237.786217,1013.70413 L238.452016,1013.26424 C239.247275,1012.73997 240.278852,1013.0201 240.75868,1013.88976 C241.237479,1014.75941 240.98164,1015.89008 240.187408,1016.41434 C239.795943,1016.6731 239.34283,1016.73498 238.931843,1016.62923" id="Fill-141" fill="#000072"></path>
                    <path d="M211,981 C211,981 207.363549,982.077187 206,988" id="Fill-142" fill="#E0E0E0"></path>
                    <path d="M211.863706,982.955474 C211.888098,982.940625 211.844616,982.945928 211.822345,982.945928 C211.799013,982.943807 211.762955,982.950171 211.731139,982.953353 C211.667507,982.957595 211.597511,982.970323 211.526455,982.984112 C211.386465,983.005325 211.23799,983.048813 211.091636,983.086997 C210.798927,983.177153 210.496675,983.282159 210.207148,983.425349 C209.621732,983.701122 209.058587,984.073416 208.531501,984.517835 C208.023504,984.979224 207.529294,985.496829 207.114624,986.089741 C206.887669,986.377182 206.720104,986.698563 206.516481,987.010399 C206.33619,987.331781 206.174989,987.66589 206,988 C206.054087,987.63301 206.097569,987.255413 206.164383,986.879937 C206.255589,986.514007 206.313919,986.127925 206.439062,985.763056 C206.651169,985.015287 206.972512,984.290852 207.361729,983.579145 C207.772156,982.881227 208.271669,982.211947 208.878296,981.611611 C209.176307,981.305078 209.511436,981.030366 209.865655,980.76626 C210.049128,980.63792 210.229419,980.509579 210.431982,980.393966 C210.530612,980.333509 210.631363,980.275172 210.742719,980.220017 C210.797867,980.191379 210.847712,980.163802 210.912405,980.136225 C210.978158,980.107587 211.02164,980.083191 211.136178,980.045007 C211.940065,979.844542 212.754557,980.332448 212.954998,981.136432 C213.155439,981.940417 212.667593,982.755008 211.863706,982.955474" id="Fill-143" fill="#000072"></path>
                    <path d="M278.196354,1014.30886 C278.13146,1014.30886 277.968068,1014.36712 277.845234,1014.4116 C277.710812,1014.45821 277.57639,1014.51329 277.440809,1014.57154 C277.169648,1014.68593 276.903122,1014.82045 276.637754,1014.96238 C276.110495,1015.2526 275.609889,1015.59789 275.147524,1015.99297 C274.679365,1016.38487 274.258717,1016.83608 273.901803,1017.34131 C273.521714,1017.84019 273.257505,1018.40474 273.012996,1019 C272.986343,1018.37508 272.988661,1017.71521 273.138147,1017.0691 C273.265617,1016.41664 273.486949,1015.76524 273.79751,1015.1435 C274.102277,1014.51752 274.482367,1013.91273 274.933144,1013.34288 C275.16143,1013.06114 275.401304,1012.78152 275.663195,1012.5146 C275.79414,1012.38008 275.928562,1012.24663 276.072255,1012.11635 C276.225218,1011.98077 276.344575,1011.86744 276.570543,1011.7075 L277.082737,1011.34526 C277.874204,1010.78707 279.010997,1010.91947 279.62169,1011.64289 C280.233542,1012.36526 280.087532,1013.40432 279.297223,1013.96357 C278.96928,1014.19553 278.581079,1014.3078 278.196354,1014.30886" id="Fill-144" fill="#000072"></path>
                    <path d="M250.308037,997.025082 C250.270121,997.015245 250.127647,997.090656 250.027685,997.144209 C249.917383,997.199947 249.805932,997.272079 249.693331,997.338746 C249.472727,997.48301 249.248675,997.638203 249.034964,997.80979 C248.607542,998.152963 248.191611,998.539852 247.823936,998.973737 C247.45741,999.407622 247.103524,999.874293 246.815129,1000.38468 C246.50835,1000.8907 246.268213,1001.43497 246.043012,1002 C245.999351,1001.40327 245.976371,1000.78578 246.036118,1000.1661 C246.077482,999.542049 246.201572,998.919092 246.364727,998.291762 C246.53133,997.664433 246.772616,997.048033 247.070203,996.439283 C247.217273,996.134361 247.388471,995.834905 247.573458,995.536541 C247.67227,995.387905 247.766487,995.23927 247.877938,995.090634 C247.930791,995.016316 247.987092,994.941998 248.050286,994.865495 C248.116927,994.78462 248.159439,994.72451 248.277784,994.610847 L249.319912,993.607557 C250.154074,992.80427 251.516767,992.79662 252.36127,993.590071 C253.205773,994.384615 253.213815,995.679712 252.379654,996.482999 C251.821248,997.019617 251.025003,997.199947 250.308037,997.025082" id="Fill-145" fill="#000072"></path>
                    <path d="M261,1025 L213.774564,1024.97205 L211,1020.18077 C226.424005,1017.44704 234.755196,1013.32548 237.146248,1012 C237.560826,1012.9718 237.781506,1013.8447 237.900416,1014.5026 C237.86185,1014.5327 237.824356,1014.5628 237.78472,1014.59398 C237.636886,1014.71223 237.501907,1014.83478 237.366928,1014.95626 C237.100184,1015.20243 236.852723,1015.45936 236.62026,1015.72488 C236.154261,1016.25593 235.75361,1016.82998 235.424733,1017.43199 C235.093714,1018.03076 234.830184,1018.65534 234.657711,1019.29389 C234.464884,1019.92492 234.389896,1020.57637 234.343832,1021.20094 C234.635214,1020.63657 234.941595,1020.10229 235.332605,1019.63896 C235.705403,1019.16489 236.134979,1018.75531 236.591336,1018.40164 C237.04555,1018.04581 237.530831,1017.74696 238.034323,1017.51046 C238.286069,1017.39221 238.538887,1017.28686 238.792775,1017.19871 C238.85598,1017.17828 238.919184,1017.15678 238.982388,1017.13743 C239.158075,1017.20946 239.346617,1017.24709 239.53623,1017.24709 C239.565154,1017.24709 239.593007,1017.24709 239.62086,1017.24494 C240.177915,1017.21806 240.721044,1017.20624 241.256674,1017.20624 C251.625402,1017.20624 258.013326,1021.99537 261,1025 M257.876205,1022.34152 L257.876205,1022.34152 C254.326049,1019.78301 248.860479,1017.21054 241.248104,1017.21054 C240.861379,1017.21054 240.470369,1017.21699 240.074003,1017.22989 C240.115782,1017.57711 240.268972,1017.90176 240.523932,1018.14579 C240.804602,1018.41454 241.176329,1018.56611 241.563054,1018.56719 C241.588765,1018.56719 241.614475,1018.56611 241.641256,1018.56504 C242.195098,1018.53816 242.738227,1018.52634 243.270643,1018.52634 C249.563226,1018.52634 254.387111,1020.28612 257.876205,1022.34152" id="Fill-146" fill="#B3B3CA"></path>
                    <path d="M263,1026 L213.726053,1026 L213.543726,1025.70483 C213.504656,1025.58193 213.452562,1025.46342 213.387445,1025.34931 L213,1024.67666 L260.843546,1024.70519 C257.817781,1021.63826 251.346248,1016.74982 240.841809,1016.74982 C240.299169,1016.74982 239.748931,1016.76189 239.184585,1016.78932 C239.156367,1016.79151 239.12815,1016.79151 239.098847,1016.79151 C238.906753,1016.79151 238.715743,1016.75311 238.537757,1016.67959 C238.601789,1016.65874 238.664735,1016.64009 238.727681,1016.62473 C238.828612,1016.59729 238.962102,1016.56218 239.026134,1016.56218 C239.034816,1016.56218 239.041328,1016.56218 239.047839,1016.56437 C239.181329,1016.5962 239.31916,1016.61156 239.45699,1016.61156 C239.770637,1016.61156 240.087539,1016.52926 240.374053,1016.35479 C240.781034,1016.1068 241.054525,1015.71946 241.169564,1015.28822 C260.102299,1017.21178 263,1026 263,1026 M237.441623,1013.99012 C237.321156,1013.31858 237.097589,1012.42758 236.677585,1011.43563 C237.175729,1011.15691 237.419917,1011 237.419917,1011 L238.546439,1013.27908 C238.545354,1013.28018 238.543183,1013.28127 238.541013,1013.28237 L237.83775,1013.71141 C237.664105,1013.81785 237.551236,1013.90234 237.441623,1013.99012" id="Fill-147" fill="#000072"></path>
                    <path d="M258,1021 C254.472139,1018.99707 249.594656,1017.28221 243.232158,1017.28221 C242.693826,1017.28221 242.144662,1017.29374 241.584667,1017.31992 C241.557588,1017.32097 241.531592,1017.32202 241.505596,1017.32202 C241.114575,1017.32097 240.738717,1017.17327 240.454928,1016.91138 C240.197136,1016.67358 240.042243,1016.35722 240,1016.01886 C240.40077,1016.00629 240.796125,1016 241.187146,1016 C248.884102,1016 254.410398,1018.50681 258,1021" id="Fill-148" fill="#C0C0D7"></path>
                    <path d="M234,1021 C234.04456,1020.40878 234.117098,1019.79212 234.303627,1019.1948 C234.470466,1018.59035 234.725389,1017.99913 235.045596,1017.43233 C235.363731,1016.86248 235.751295,1016.31909 236.202073,1015.8164 C236.426943,1015.56505 236.666321,1015.32185 236.924352,1015.08882 C237.054922,1014.97383 237.185492,1014.85783 237.328497,1014.74589 C237.366839,1014.71638 237.403109,1014.68789 237.440415,1014.6594 C237.545078,1014.57799 237.65285,1014.49964 237.818653,1014.40093 L238.490155,1014.00305 C238.492228,1014.00204 238.494301,1014.00102 238.495337,1014 L239.373057,1015.7238 C239.929534,1015.7645 240.471503,1015.81131 241,1015.86321 C240.890155,1016.26312 240.629016,1016.62233 240.240415,1016.8523 C239.966839,1017.0141 239.664249,1017.09042 239.364767,1017.09042 C239.233161,1017.09042 239.101554,1017.07617 238.974093,1017.04666 C238.967876,1017.04463 238.961658,1017.04463 238.953368,1017.04463 C238.892228,1017.04463 238.764767,1017.07719 238.668394,1017.10263 C238.60829,1017.11688 238.548187,1017.13418 238.487047,1017.15351 C238.425907,1017.17183 238.364767,1017.19218 238.303627,1017.21151 C238.058031,1017.29496 237.813472,1017.39468 237.569948,1017.50661 C237.082902,1017.73048 236.613472,1018.01337 236.174093,1018.3502 C235.732642,1018.68498 235.317098,1019.07268 234.956477,1019.52144 C234.578238,1019.96002 234.281865,1020.46577 234,1021" id="Fill-149" fill="#000072"></path>
                    <path d="M117.27082,1023.99895 L91.4885022,1023.99895 C91.6733996,1023.47858 91.9126787,1022.97718 92.1998135,1022.49895 C114.152579,1021.54459 124.27082,1006.97437 127.369484,1001.35674 C128.414699,1001.52423 129.43816,1001.7665 130.426818,1002.07935 L117.27082,1023.99895 M89,1023.99895 L89,1023.99895 C89.0391548,1023.50281 89.127253,1023.01615 89.2577688,1022.54424 L89.2588564,1022.54424 C89.127253,1023.01615 89.0391548,1023.50281 89,1024 M131,1001.12395 C130.064636,1000.67942 129.086855,1000.30337 128.075357,1000 C129.086855,1000.30337 130.065724,1000.67942 131,1001.12395" id="Fill-150" fill="#B3B3CA"></path>
                    <path d="M116.913602,1025 L86,1025 L87.5472668,1022.72106 C88.0801656,1022.74248 88.6021219,1022.7564 89.1218897,1022.76283 C88.99058,1023.24261 88.9019459,1023.73738 88.8625529,1024.24178 C88.8625529,1024.24285 88.8625529,1024.24285 88.8625529,1024.24285 L91.3661925,1024.24285 L117.305343,1024.24178 L117.08321,1024.61661 C117.01099,1024.73869 116.954089,1024.8672 116.913602,1025 M131.118036,1000.9855 C130.178077,1000.53357 129.193254,1000.15125 128.175603,999.842821 C128.433846,999.304144 128.556401,999 128.556401,999 L132,999.500124 L131.118036,1000.9855" id="Fill-151" fill="#000072"></path>
                    <path d="M91.4885022,1023.99895 L89,1023.99895 C89.0391548,1023.50281 89.127253,1023.01615 89.2588564,1022.54424 C89.4785581,1022.54635 89.6993474,1022.54846 89.9168738,1022.54846 C90.6923555,1022.5474 91.4526103,1022.5316 92.1998135,1022.49895 C91.9126787,1022.97718 91.6733996,1023.47858 91.4885022,1024 M130.426818,1002.07935 C129.43816,1001.7665 128.414699,1001.52423 127.369484,1001.35674 C127.668583,1000.81426 127.902424,1000.35499 128.075357,1000 C129.086855,1000.30337 130.064636,1000.67942 131,1001.12395 L130.426818,1002.07935" id="Fill-152" fill="#C0C0D7"></path>
                    <path d="M92,1025.00054 L89,1025.00054 L92,1024.99946 C92,1025.00054 92,1025.00054 92,1025.00054" id="Fill-153" fill="#6666AB"></path>
                    <path d="M153.078973,965.83777 C158.394887,956.720743 171.605113,956.720743 176.921027,965.83777 L212,1026 L118,1026 L153.078973,965.83777" id="Fill-154" fill="#797F89"></path>
                    <path d="M121.86137,1024.41694 L209.13863,1024.41694 L175.815387,966.572204 C173.655677,962.821933 169.798975,960.583062 165.5,960.583062 C161.201025,960.583062 157.344323,962.821933 155.184613,966.572204 L121.86137,1024.41694 M212.223777,1028 L118.776223,1028 C118.140255,1028 117.553786,1027.65798 117.23634,1027.10206 C116.91997,1026.54615 116.921046,1025.86211 117.240645,1025.30836 L152.114531,964.770901 L153.649034,965.67101 L152.114531,964.770901 C154.917743,959.905537 159.921556,957 165.5,957 C171.078444,957 176.082257,959.904452 178.885469,964.770901 L213.759355,1025.30836 C214.078954,1025.86211 214.08003,1026.54615 213.76366,1027.10206 C213.446214,1027.65798 212.859745,1028 212.223777,1028" id="Fill-155" fill="#000072"></path>
                    <path d="M158.6307,976.610163 L163.162475,978.733761 C164.836518,979.518337 166.716745,979.427356 168.328826,978.482226 L171.101093,976.858487 C172.597796,975.98186 174.330596,975.837361 175.918106,976.457101 L182,978.833305 L175.079482,966.904118 C172.935382,963.207087 169.106556,961 164.838655,961 C160.570753,961 156.741927,963.207087 154.597827,966.904118 L147,980 L153.859624,976.649766 C155.385172,975.905864 157.097674,975.890879 158.6307,976.610163" id="Fill-156" fill="#FFF2E9"></path>
                    <path d="M214.15448,1026.15448 L213.86628,1026.15448 C213.86628,1026.05106 213.860174,1025.94894 213.84552,1025.84552 L213.974966,1025.84552 L214.15448,1026.15448" id="Fill-157" fill="#000072"></path>
                    <path d="M214.15448,1025.15448 L213.959541,1025.15448 C213.935633,1025.04996 213.898852,1024.94659 213.84552,1024.84552 L214.15448,1025.15448" id="Fill-158" fill="#000072"></path>
                    <path d="M209,1024 L126,1024 L127.51608,1021.4036 C163.487354,1017.20893 172.920743,995.002958 175.000494,979.256789 C175.319044,979.304114 175.635434,979.388008 175.946425,979.50847 L185.101218,983.063189 L185.106617,983.056736 L209,1024 M183.06034,979.549341 L176.870759,977.146545 C176.352441,976.94434 175.817925,976.80882 175.278011,976.738908 C175.300687,976.489379 175.320124,976.245227 175.339561,976 C175.700224,976.063458 176.057647,976.163485 176.408592,976.299005 L182.55606,978.686744 L183.06034,979.549341" id="Fill-159" fill="#545982"></path>
                    <path d="M214,1026 L119,1026 L121.133179,1022.1747 C121.875014,1022.13899 122.606114,1022.09679 123.327551,1022.04701 L122.077918,1024.2145 L209.150695,1024.2145 L183.361453,979.492606 L182.860097,978.624744 L175.905526,966.564506 C175.826082,966.427077 175.745564,966.291812 175.661826,966.158711 C175.49435,964.161116 175.285004,963 175.285004,963 L213.915188,1025.45353 C213.946322,1025.54876 213.967793,1025.64615 213.981749,1025.74462 C213.994632,1025.83011 214,1025.91451 214,1026" id="Fill-160" fill="#001034"></path>
                    <path d="M182,979 L182,979 L176.056525,976.494792 C175.717226,976.352604 175.371663,976.247656 175.022968,976.181076 C175.320507,971.973003 175.187919,968.404774 175,966 C175.081432,966.138802 175.159732,966.279861 175.236987,966.423177 L182,979" id="Fill-161" fill="#B2A9C5"></path>
                    <path d="M123,1022 L147.222117,980.165678 L153.540513,977.073944 L153.043069,977.932343 L153.525568,977.696578 C154.464948,977.237908 155.483321,977.007502 156.501694,977.007502 C157.48484,977.007502 158.469053,977.221833 159.381746,977.650497 L163.905713,979.775595 C164.485353,980.047796 165.099152,980.182825 165.711884,980.182825 C166.46232,980.182825 167.212756,979.980281 167.899144,979.577338 L170.669246,977.950561 C171.743128,977.320426 172.934432,977 174.128939,977 C174.42036,977 174.710714,977.018218 175,977.056798 C174.928479,977.870186 174.837744,978.710367 174.725658,979.56555 C174.523905,979.535543 174.32322,979.521612 174.121467,979.521612 C173.374233,979.521612 172.629134,979.726298 171.939544,980.131385 L169.169441,981.757091 C168.085952,982.393656 166.902121,982.71301 165.716154,982.71301 C164.741547,982.71301 163.763739,982.497607 162.839304,982.063585 L158.311067,979.936344 C157.737832,979.667357 157.119763,979.532328 156.501694,979.532328 C155.861207,979.532328 155.221789,979.677002 154.631474,979.96635 C152.116499,981.196614 150.023177,983.150246 148.61731,985.577552 L139.501057,1001.32235 C139.932318,1003.09595 139.543756,1005.42788 138.293741,1007.60227 C137.030916,1009.79703 135.191653,1011.30914 133.430316,1011.80746 L127.784431,1021.55955 C126.24086,1021.74066 124.643914,1021.88855 123,1022" id="Fill-162" fill="#BCBFC4"></path>
                    <path d="M123,1022 L145.539533,982.716507 L146.564829,980.928013 L150.492124,974.084472 L123,1022 M165,961.002148 C164.995759,961.002148 164.992578,961.002148 164.988337,961.002148 C164.992578,961.002148 164.995759,961.002148 165,961.002148 M164.986216,961.002148 C164.911996,961 164.837776,961 164.763556,961 C164.699939,961 164.636322,961 164.573766,961.001074 C164.637383,961 164.699939,961 164.763556,961 C164.837776,961 164.911996,961 164.986216,961.002148" id="Fill-163" fill="#8080B9"></path>
                    <path d="M148,980 L155.43929,967.108557 C157.23641,963.995944 160.274829,961.740691 163.80424,961.159484 C164.39407,961.062081 164.978585,961.010704 165.555662,961.00107 C165.618364,961 165.68213,961 165.745895,961 C165.820288,961 165.894681,961 165.969074,961.002141 C165.969074,961.002141 165.970137,961.002141 165.971199,961.002141 C165.97545,961.002141 165.978639,961.002141 165.98289,961.002141 C166.66943,961.016055 167.343217,961.08884 168,961.215143 C164.686328,961.849868 161.814762,963.876063 160.066529,966.904118 L154.290451,976.912005 L148,980" id="Fill-164" fill="#FFF9F4"></path>
                    <path d="M126.50797,1024 L122,1024 L123.236982,1021.51077 C124.873539,1021.38152 126.463337,1021.21002 128,1021 L126.50797,1024" id="Fill-165" fill="#AAACC1"></path>
                    <polyline id="Fill-166" fill="#8080B9" points="126 1024 121 1024 122.371994 1022 121 1024 126 1024"></polyline>
                    <path d="M184.994658,983 L175.935997,979.065476 C175.628272,978.932143 175.315205,978.839286 175,978.786905 C175.112191,977.836905 175.203013,976.903571 175.274602,976 C175.808847,976.077381 176.33775,976.227381 176.850625,976.45119 L182.975211,979.110714 L185,982.992857 L184.994658,983" id="Fill-167" fill="#AAACC1"></path>
                    <polyline id="Fill-168" fill="#8080B9" points="185 983 183 980 185 983"></polyline>
                    <path d="M145.270155,982 C144.799497,982 144.348224,981.722523 144.128512,981.246037 C143.821561,980.580775 144.083277,979.779049 144.713335,979.454947 L153.875562,974.740118 C155.746349,973.77691 157.897162,973.758715 159.779797,974.688944 L164.348525,976.945148 C165.649567,977.587666 167.118625,977.511473 168.377664,976.734766 L171.172537,975.009634 C173.006705,973.875846 175.179059,973.688208 177.130623,974.491071 L186.19161,978.221086 C186.844285,978.489465 187.167392,979.267309 186.913214,979.956452 C186.659037,980.645595 185.922354,980.986755 185.269679,980.718376 L176.208692,976.988362 C174.965808,976.476622 173.632455,976.596028 172.454193,977.322698 L169.659321,979.048967 C167.670061,980.277143 165.341539,980.395411 163.27258,979.373069 L158.703852,977.115728 C157.501895,976.52211 156.182543,976.534619 154.988126,977.149844 L145.825899,981.863536 C145.646036,981.955649 145.45648,982 145.270155,982" id="Fill-169" fill="#000072"></path>
                    <path d="M151,861.500538 C151,876.688525 138.687691,889 123.5,889 C108.312309,889 96,876.688525 96,861.500538 C96,846.31255 108.312309,834 123.5,834 C138.687691,834 151,846.31255 151,861.500538" id="Fill-170" fill="#FF9B0B"></path>
                    <path d="M123,835.038832 C108.684823,835.038832 97.0388321,846.684823 97.0388321,861 C97.0388321,875.314103 108.684823,886.960093 123,886.960093 C137.315177,886.960093 148.961168,875.314103 148.961168,861 C148.961168,846.684823 137.315177,835.038832 123,835.038832 M123,890 C107.009597,890 94,876.990403 94,861 C94,845.009597 107.009597,832 123,832 C138.990403,832 152,845.009597 152,861 C152,876.990403 138.990403,890 123,890" id="Fill-171" fill="#000072"></path>
                    <path d="M122.403262,849 C119.434791,849 116.863658,847.820875 115.496101,846.813297 C114.948448,846.409232 114.837025,845.645539 115.248028,845.108164 C115.491897,844.788839 115.864007,844.620393 116.240321,844.620393 C116.497855,844.620393 116.757491,844.698932 116.980337,844.862212 C117.126448,844.968653 119.400103,846.581812 122.403262,846.581812 C123.952669,846.581812 125.696541,846.151912 127.443566,844.864278 C127.491919,844.828109 127.542375,844.797106 127.595984,844.768171 L136.528727,840 C137.378063,840.388564 138.203222,840.822597 139,841.297968 C138.893833,841.451946 138.750875,841.585257 138.572179,841.680331 L128.855272,846.867034 C126.693039,848.43679 124.453021,849 122.403262,849" id="Fill-172" fill="#FFCD85"></path>
                    <path d="M97.0010737,862 C97,861.982783 97,861.966713 97,861.950644 C97,861.966713 97,861.982783 97.0010737,862 M99.6381232,861.586787 C99.7616007,860.138248 99.9892288,858.721847 100.313491,857.346767 C103.283393,855.029333 106.887862,853.766739 110.582523,853.766739 C112.15015,853.766739 113.734957,853.994006 115.293994,854.465757 C117.458608,855.118862 120.569167,855.843132 123.723748,855.843132 C126.675397,855.841984 129.665699,855.208392 131.953791,853.288101 C132.18464,853.094121 132.460585,853 132.733309,853 C133.10911,853 133.480616,853.176763 133.729719,853.517664 C134.161353,854.104196 134.065792,854.954725 133.516049,855.416146 C130.710426,857.771458 127.146759,858.535901 123.702274,858.535901 C120.257789,858.535901 116.932487,857.771458 114.605741,857.068996 C113.271111,856.666114 111.915006,856.472134 110.572859,856.472134 C106.450859,856.472134 102.459852,858.306338 99.6381232,861.586787" id="Fill-173" fill="#FFCD85"></path>
                    <path d="M142.485446,879 C141.981889,878.68257 141.483182,878.413621 141,878.183917 C141.535576,877.486726 142.044955,876.757214 142.523286,876 C143.008409,876.257407 143.503234,876.551751 144,876.888803 C143.52458,877.621778 143.019082,878.327049 142.485446,879" id="Fill-174" fill="#FFCD85"></path>
                    <path d="M121.461833,887 C115.064594,886.636185 109.290573,883.909688 105,879.682455 C105.002116,879.682455 105.006349,879.682455 105.008465,879.682455 C106.006248,880.663909 107.083388,881.563928 108.229304,882.372993 C107.299239,881.525855 106.431602,880.611029 105.633799,879.635921 C120.626997,878.447177 129.215549,871.588631 134.136746,864.065911 C138.668565,862.552483 143.039553,860.865609 146.982012,859 C146.99471,859.331029 147,859.662059 147,859.995203 C147,866.090161 144.983272,871.714485 141.58044,876.236789 C139.547841,875.32831 137.678188,874.914788 136.492064,874.730765 C135.694261,874.607025 134.947246,874.545685 134.237265,874.545685 C133.692346,874.545685 133.169648,874.581643 132.663879,874.65356 C127.516249,875.388593 125.455081,878.732729 125.369376,878.874448 C125.014914,879.464589 125.206429,880.230293 125.797904,880.584589 C125.997884,880.705156 126.219026,880.762266 126.438051,880.762266 C126.861289,880.762266 127.273946,880.546516 127.507785,880.157318 C127.522598,880.131936 129.093868,877.681473 133.016224,877.122002 C133.404545,877.065949 133.809795,877.038451 134.236207,877.038451 C134.818159,877.038451 135.43926,877.090274 136.110092,877.194976 C137.02217,877.335637 138.396634,877.631766 139.919232,878.237771 C135.290069,883.30051 128.762685,886.597054 121.461833,887" id="Fill-175" fill="#B26C2A"></path>
                    <path d="M120.473802,887 C115.902637,887 111.599989,885.92269 107.82164,884.030608 C108.874483,884.703549 109.979332,885.30809 111.128757,885.838195 C108.050888,884.418882 105.293543,882.471476 103,880.109642 C103.849067,880.089524 104.676908,880.052306 105.487767,880 C109.791476,884.020549 115.583175,886.613738 122,886.959764 C121.494805,886.986923 120.985365,887 120.473802,887" id="Fill-176" fill="#000072"></path>
                    <path d="M137,859 C140.372541,851.55864 140.958512,844.442592 141.059025,842 C141.678144,842.618643 142.268392,843.270368 142.825492,843.949663 C144.883875,847.128892 146.334902,850.762455 147,854.675013 C143.931138,856.229891 140.548973,857.671186 137,859" id="Fill-177" fill="#B26C2A"></path>
                    <path d="M143,845 C142.369249,844.15655 141.700969,843.34733 141,842.579188 C141.008475,842.353263 141.014528,842.160201 141.01816,842 C141.723971,842.958466 142.386199,843.959379 143,845" id="Fill-178" fill="#000072"></path>
                    <path d="M126.293095,881 C126.065904,881 125.836518,880.944879 125.629083,880.828513 C125.015558,880.48656 124.816903,879.747533 125.184579,879.177952 C125.27348,879.04117 127.411489,875.813542 132.751025,875.104117 C133.275649,875.034706 133.817834,875 134.383068,875 C135.119517,875 135.894381,875.059204 136.721927,875.178632 C137.95227,875.356244 139.891624,875.755359 142,876.632188 C141.458912,877.301803 140.882704,877.946921 140.276861,878.563457 C138.6975,877.978564 137.271795,877.692753 136.325715,877.556992 C135.629874,877.455937 134.985617,877.40592 134.38197,877.40592 C133.939661,877.40592 133.519303,877.43246 133.116506,877.48656 C129.047922,878.02654 127.418074,880.39163 127.402709,880.416128 C127.160152,880.791766 126.732111,881 126.293095,881" id="Fill-179" fill="#B28F7F"></path>
                    <path d="M141,842.23 C141,842.11 141,842.03 141,842 C141,842.03 141,842.11 141,842.23" id="Fill-180" fill="#000072"></path>
                    <path d="M105.347322,880 C103.161789,877.782899 101.345113,875.182245 100,872.305022 C100.521259,872.206004 101.053562,872.104709 101.595803,872 C102.629486,874.911367 104.12921,877.59283 106,879.949922 C105.784649,879.968132 105.565986,879.984066 105.347322,880" id="Fill-181" fill="#FFCD85"></path>
                    <path d="M108,883 C106.932654,882.113215 105.929369,881.126739 105,880.051005 C105.195138,880.034776 105.390276,880.018547 105.582457,880 C106.325558,881.068779 107.133706,882.071484 108,883" id="Fill-182" fill="#D9B695"></path>
                    <path d="M98.2280893,869 C97.4354927,866.525033 97.0054437,863.890111 97.0010887,861.15792 C97.0021775,862.120888 97.060969,863.070886 97.1665759,864.007915 C97.3777899,863.890111 97.5606968,863.716107 97.681546,863.486983 C97.6837235,863.48266 97.9526402,862.973616 98.4893849,862.223561 C98.8562874,861.709113 99.2525857,861.223847 99.6750136,860.768842 C99.6031573,861.552402 99.5661404,862.346769 99.5661404,863.148701 C99.5661404,865.033568 99.7686445,866.873041 100.152967,868.645507 C99.4931954,868.769796 98.849755,868.8876 98.2280893,869 M97,861.111447 C97,855.856734 98.5775721,850.96408 101.278715,846.863632 C103.544366,843.423535 106.603702,840.546521 110.198694,838.48657 C113.639085,836.515242 117.565052,835.288566 121.754491,835.045392 C122.267284,835.015131 122.783342,835 123.303756,835 C126.262929,835 129.111051,835.488509 131.767556,836.38663 C131.768645,836.38663 131.769733,836.387711 131.770822,836.387711 C131.780621,836.390953 131.792597,836.395276 131.802395,836.398519 C131.804573,836.399599 131.807839,836.40068 131.810016,836.40068 C131.819815,836.403923 131.827436,836.407165 131.837235,836.410407 C131.84159,836.411488 131.844856,836.412569 131.848122,836.41473 C131.856832,836.416892 131.864453,836.420134 131.872074,836.422296 C131.877518,836.424457 131.881873,836.425538 131.886228,836.4277 C131.89276,836.429861 131.899292,836.432023 131.905825,836.434184 C131.912357,836.436346 131.918889,836.438507 131.924333,836.440669 C131.927599,836.44175 131.929777,836.44283 131.933043,836.443911 C135.322265,837.615468 138.39902,839.458184 141,841.809943 C140.50245,841.460854 139.991835,841.129057 139.470332,840.814552 C139.511704,840.752948 139.547632,840.688102 139.579205,840.621094 C138.908547,840.095839 138.212847,839.603007 137.493195,839.142598 L136.910724,839.457103 C133.551987,837.906195 129.812194,837.038336 125.869897,837.038336 C120.503538,837.038336 115.509526,838.645443 111.344039,841.394927 C111.042461,842.746972 110.11595,844.34003 108.697333,845.748276 C107.2319,847.202994 105.570495,848.132458 104.180185,848.399409 C102.441481,850.911122 101.131737,853.738421 100.359826,856.776471 C99.1306478,857.667027 98.0081655,858.724022 97.0304845,859.932325 C97.0130648,860.323564 97,860.715884 97,861.111447" id="Fill-183" fill="#FFCD85"></path>
                    <path d="M132,836.01306 C131.993565,836.01106 131.98713,836.00906 131.980695,836.00706 C131.98713,836.00906 131.993565,836.01106 132,836.01306 M131.966752,836.004894 C131.959245,836.002894 131.951737,835.999894 131.943157,835.997894 C131.951737,835.999894 131.959245,836.002894 131.966752,836.004894 M131.932432,835.996851 C131.92278,835.993851 131.915272,835.990851 131.90562,835.987851 C131.915272,835.990851 131.923852,835.993851 131.932432,835.996851 M131.898112,835.988685 C131.88846,835.985685 131.876662,835.981685 131.86701,835.978685 C131.877735,835.981685 131.887387,835.985685 131.898112,835.988685 M131.863792,835.966843 C129.24689,835.340618 126.441227,835 123.526169,835 C123.013514,835 122.505148,835.01055 122,835.03165 C122.505148,835.01055 123.013514,835 123.526169,835 C126.441227,835 129.24689,835.339864 131.863792,835.966843" id="Fill-184" fill="#8080B9"></path>
                    <path d="M139.877601,841 C138.949816,840.70265 137.988984,840.431157 137,840.188106 L137.654835,840 C138.463892,840.275372 139.246022,840.570136 140,840.884292 C139.964504,840.92437 139.924113,840.963154 139.877601,841" id="Fill-185" fill="#FFE6C2"></path>
                    <path d="M97.1487362,864 C97.0544394,863.092961 97.0019443,862.173367 97.0009721,861.24122 C97,861.225527 97,861.21088 97,861.196234 C97,860.813331 97.0116656,860.433567 97.0272197,860.05485 C97.9001944,858.885219 98.9024627,857.862054 100,857 C99.7064161,858.253325 99.500324,859.544313 99.3885288,860.864594 C99.0113415,861.305037 98.6574854,861.774772 98.3298769,862.272754 C97.8506157,862.998804 97.610499,863.491556 97.6085548,863.495741 C97.5006481,863.717531 97.3373299,863.885966 97.1487362,864" id="Fill-186" fill="#FFE6C2"></path>
                    <path d="M122.334967,848 C119.394504,848 116.846728,846.772896 115.491594,845.723243 C114.948916,845.303812 114.838505,844.509045 115.245775,843.949803 C115.652002,843.390562 116.418627,843.275488 116.961305,843.693843 C117.186293,843.864842 122.24643,847.632191 127.330525,843.695994 C127.378439,843.658353 127.428436,843.625013 127.480516,843.595976 L137.186231,838.154129 C137.782032,837.81966 138.527824,838.047658 138.850723,838.662824 C139.174663,839.277989 138.953842,840.048021 138.358041,840.381415 L128.729406,845.780243 C126.586816,847.413872 124.367147,848 122.334967,848" id="Fill-187" fill="#000072"></path>
                    <path d="M96.273417,863 C96.075492,863 95.8754039,862.955507 95.6882945,862.862384 C95.064236,862.55197 94.819804,861.819395 95.1421081,861.222367 C95.1561683,861.1965 95.4838802,860.592229 96.1295699,859.722037 C100.395232,853.971116 108.039679,851.398826 115.156325,853.320283 C119.378725,854.461569 127.172427,855.840838 131.937768,852.259705 C132.491525,851.844786 133.292959,851.936876 133.727745,852.465613 C134.162531,852.995384 134.066273,853.762105 133.512515,854.178058 C127.859216,858.42451 119.150516,856.934527 114.464129,855.667007 C108.383614,854.024921 101.852089,856.221612 98.2094045,861.132348 C97.6761968,861.851471 97.4090521,862.33882 97.4058074,862.343994 C97.1786804,862.759947 96.7341604,863 96.273417,863" id="Fill-188" fill="#000072"></path>
                    <path d="M144.734513,880 C144.457774,880 144.178889,879.899188 143.945056,879.692819 C141.056458,877.133371 137.769913,876.261641 136.068719,875.969878 C134.889897,875.768254 133.863388,875.740975 132.931271,875.889229 C128.956097,876.516637 127.363238,879.264663 127.348221,879.291942 C126.989962,879.954931 126.213377,880.169602 125.613776,879.772283 C125.015247,879.374963 124.821101,878.51628 125.180432,877.854476 C125.267315,877.695549 127.35573,873.94533 132.574084,873.12104 C133.757197,872.934834 135.027194,872.963299 136.455939,873.20762 C138.405984,873.54208 142.178431,874.545459 145.526115,877.511714 C146.071012,877.994427 146.158968,878.87446 145.722407,879.475776 C145.472483,879.82091 145.105643,880 144.734513,880" id="Fill-189" fill="#000072"></path>
                    <path d="M88.0507786,874 C86.5515932,874 85.1904763,873.194912 84.4740418,871.83801 C83.6586762,870.295733 83.9098088,868.478626 85.1143755,867.207945 C87.7746415,864.404686 92.979935,861.840691 93.2006273,861.732915 C94.087745,861.297499 95.1629403,861.659627 95.6021506,862.540158 C96.0402736,863.42069 95.676077,864.486596 94.7878722,864.922012 C94.7400374,864.945723 89.9413395,867.31141 87.7278938,869.644764 C87.5724308,869.807506 87.5474263,869.990726 87.651793,870.187956 C87.7561598,870.386265 87.9224944,870.469252 88.145361,870.435842 C96.3903372,869.208271 138.366442,862.441004 155.127096,849.739581 C155.464114,849.484151 155.429325,849.180222 155.379316,849.020714 C155.328219,848.860127 155.178192,848.588531 154.745505,848.571287 C152.739706,848.490455 150.363187,848.734029 147.679003,849.296621 C146.709262,849.496007 145.758002,848.885993 145.55253,847.92463 C145.348145,846.964344 145.967823,846.020225 146.936477,845.816528 C149.913105,845.192504 152.591853,844.925219 154.892271,845.017906 C156.721951,845.092272 158.257012,846.243321 158.800589,847.950496 C159.343079,849.654438 158.757103,851.466155 157.305753,852.565472 C140.286356,865.463048 100.474775,872.195827 88.6780665,873.952578 C88.4671586,873.983834 88.2573378,874 88.0507786,874" id="Fill-190" fill="#000072"></path>
                    <path d="M121,868.5 C121,872.090123 118.089878,875 114.500546,875 C110.910122,875 108,872.090123 108,868.5 C108,864.910969 110.910122,862 114.500546,862 C118.089878,862 121,864.910969 121,868.5" id="Fill-191" fill="#00BBFC"></path>
                    <path d="M114.5,862.478965 C111.730753,862.478965 109.478965,864.731805 109.478965,867.5 C109.478965,870.268195 111.730753,872.521035 114.5,872.521035 C117.268195,872.521035 119.521035,870.268195 119.521035,867.5 C119.521035,864.731805 117.268195,862.478965 114.5,862.478965 M114.5,875 C110.364535,875 107,871.635465 107,867.5 C107,863.364535 110.364535,860 114.5,860 C118.635465,860 122,863.364535 122,867.5 C122,871.635465 118.635465,875 114.5,875" id="Fill-192" fill="#000072"></path>
                    <path d="M110.920697,872 C109.746685,871.06299 109,869.664963 109,868.106489 C109,865.291181 111.433262,863 114.425685,863 C115.795176,863 117.044197,863.48241 118,864.272879 C117.997727,864.29962 117.994317,864.326361 117.990908,864.354172 C117.384013,864.131685 116.723702,864.008676 116.032706,864.008676 C113.041419,864.008676 110.607021,866.298788 110.607021,869.115165 C110.607021,870.12812 110.924107,871.072617 111.467357,871.867364 C111.290062,871.914428 111.107084,871.958284 110.920697,872" id="Fill-193" fill="#80DDFE"></path>
                    <path d="M114.533588,873 C113.187023,873 111.953817,872.540421 111,871.779479 C111.001145,871.779479 111.001145,871.779479 111.00229,871.779479 C111.412214,872.105597 111.873664,872.376824 112.372901,872.580244 C112.062595,872.300407 111.787786,871.986128 111.553053,871.646018 C116.777863,870.253289 117.89771,866.143985 118.125573,864.086104 C118.18855,864.109782 118.251527,864.133461 118.312214,864.158216 C118.254962,864.105477 118.19542,864.054891 118.134733,864.004305 C118.134733,864.003229 118.134733,864.001076 118.135878,864 C119.277481,864.94176 120,866.323726 120,867.861756 C120,870.694571 117.547328,873 114.533588,873" id="Fill-194" fill="#0083D2"></path>
                    <path d="M115.02863,874 C112.259681,874 110,872.515392 110,872.515392 C110.474617,872.455963 110.920883,872.371865 111.339848,872.268705 C112.214529,873.061468 113.34542,873.540265 114.580264,873.540265 C117.343963,873.540265 119.593144,871.13843 119.593144,868.187156 C119.593144,866.584811 118.93057,865.145056 117.883683,864.163914 C117.946685,863.454128 117.920434,863 117.920434,863 C121.880126,864.586646 120.88994,870.928746 120.88994,870.928746 C119.075475,873.298063 116.931299,874 115.02863,874" id="Fill-195" fill="#000072"></path>
                    <path d="M112.3125,873 C111.83443,872.786521 111.392544,872.501883 111,872.159639 C111.179825,872.115587 111.35636,872.069277 111.527412,872.019578 C111.752193,872.376506 112.015351,872.706325 112.3125,873 M118,864.161521 C117.941886,864.135542 117.881579,864.110693 117.821272,864.085843 C117.824561,864.056476 117.827851,864.028238 117.830044,864 C117.888158,864.053087 117.945175,864.106175 118,864.161521" id="Fill-196" fill="#599AD4"></path>
                    <path d="M326.732219,252.267417 C325.755927,251.291597 325.755927,249.708643 326.732219,248.731865 C327.708606,247.756045 329.291417,247.756045 330.267709,248.731865 C331.244097,249.708643 331.244097,251.291597 330.267709,252.267417 C329.291417,253.244194 327.708606,253.244194 326.732219,252.267417" id="Fill-197" fill="#1343AF"></path>
                    <path d="M279,959.5 C279,961.432558 277.432558,963 275.5,963 C273.566279,963 272,961.432558 272,959.5 C272,957.566279 273.566279,956 275.5,956 C277.432558,956 279,957.566279 279,959.5" id="Fill-198" fill="#000072"></path>
                    <path d="M322.836122,9.6115556 C323.326628,10.9020251 322.678921,12.3457192 321.388483,12.8362369 C320.098044,13.3267546 318.654384,12.6780374 318.163878,11.3885629 C317.673372,10.0980934 318.321079,8.65439936 319.611517,8.16388166 C320.901956,7.67336396 322.345616,8.32108611 322.836122,9.6115556" id="Fill-199" fill="#1343AF"></path>
                    <path d="M348.697841,9.69736883 C349.333796,9.06144513 348.932486,7.54948169 347.807504,5.83687337 C347.47308,5.3281344 347.47308,4.67247513 347.807504,4.16263974 C348.932486,2.45003142 349.333796,0.939164405 348.697841,0.302144278 C348.06079,-0.333779428 346.549849,0.0675103592 344.837158,1.19243747 C344.327297,1.52684562 343.671606,1.52684562 343.161746,1.19243747 C341.450151,0.0675103592 339.938114,-0.333779428 339.302159,0.302144278 C338.666204,0.939164405 339.067514,2.45003142 340.192496,4.16263974 C340.525823,4.67247513 340.525823,5.3281344 340.192496,5.83687337 C339.067514,7.54948169 338.666204,9.06144513 339.302159,9.69736883 C339.938114,10.334389 341.450151,9.93200275 343.161746,8.80707564 C343.671606,8.47266749 344.327297,8.47266749 344.837158,8.80707564 C346.549849,9.93200275 348.06079,10.334389 348.697841,9.69736883" id="Fill-200" fill="#1343AF"></path>
                    <path d="M313.5,235 C314.244872,235 314.894556,233.879578 315.238704,232.219032 C315.341145,231.725779 315.72513,231.340773 316.219033,231.239221 C317.88007,230.89439 319,230.244902 319,229.499442 C319,228.755098 317.88007,228.10561 316.219033,227.760779 C315.72513,227.658111 315.341145,227.274221 315.238704,226.780968 C314.894556,225.119306 314.244872,224 313.5,224 C312.755017,224 312.105332,225.119306 311.761184,226.780968 C311.658855,227.274221 311.274646,227.658111 310.780855,227.760779 C309.11993,228.10561 308,228.755098 308,229.499442 C308,230.244902 309.11993,230.89439 310.780855,231.239221 C311.274646,231.340773 311.658855,231.725779 311.761184,232.219032 C312.105332,233.879578 312.755017,235 313.5,235" id="Fill-201" fill="#1343AF"></path>
                    <path d="M102.312641,127.676217 C100.558299,125.916455 100.563046,123.067156 102.323378,121.313046 C104.08371,119.557806 106.932905,119.563457 108.687359,121.323218 C110.441701,123.08411 110.436954,125.933409 108.676622,127.687519 C106.91629,129.441629 104.067095,129.437108 102.312641,127.676217" id="Fill-202" fill="#1343AF"></path>
                    <path d="M82,147.495676 C82.0023089,146.115274 83.1234938,144.998081 84.5042264,145 C85.884959,145.001924 87.0023976,146.12392 87,147.504321 C86.9976908,148.884722 85.8765059,150.002876 84.4957733,150 C83.1151368,149.998073 81.9976982,148.877038 82,147.495676" id="Fill-203" fill="#1343AF"></path>
                    <line x1="95" y1="946" x2="105" y2="941" id="Fill-204" fill="#909090"></line>
                    <path d="M94.8459376,944.465929 L105,941 L95.8366528,946.818122 C95.2598455,947.183533 94.5139916,946.981135 94.1707759,946.365188 C93.8275602,945.749242 94.0181218,944.952778 94.5949291,944.587368 C94.6738175,944.537042 94.7619266,944.495468 94.8459376,944.465929" id="Fill-205" fill="#000072"></path>
                    <line x1="112" y1="946" x2="120" y2="941" id="Fill-206" fill="#909090"></line>
                    <path d="M111.707478,945.343663 L120,941 L112.975675,947.681569 C112.461898,948.170436 111.701386,948.087399 111.276962,947.494443 C110.851522,946.902657 110.924629,946.026673 111.438405,945.537807 C111.52065,945.459448 111.61508,945.392784 111.707478,945.343663" id="Fill-207" fill="#000072"></path>
                    <line x1="156" y1="977" x2="164" y2="973" id="Fill-208" fill="#909090"></line>
                    <path d="M154.883592,974.436081 L163,972 L155.840548,976.804157 C155.274476,977.183663 154.531189,976.995007 154.180811,976.381874 C153.830434,975.768741 154.00461,974.96366 154.570682,974.584154 C154.66891,974.518343 154.778276,974.467889 154.883592,974.436081" id="Fill-209" fill="#000072"></path>
                    <line x1="172" y1="977" x2="177" y2="973" id="Fill-210" fill="#909090"></line>
                    <path d="M170.807126,975.495723 L177,973 L172.153634,977.646349 C171.640577,978.13857 170.832672,978.113689 170.348355,977.592259 C169.864038,977.07083 169.887455,976.24974 170.401577,975.757519 C170.521858,975.642848 170.662363,975.55414 170.807126,975.495723" id="Fill-211" fill="#000072"></path>
                </g>
                <g id="Group-2" transform="translate(145.000000, 0.000000)">
                    <polygon id="Fill-4" fill="#E0E0E0" points="161 46.3614669 138.092666 46.3614669 138.092666 38.4001354 91.9528922 24.5760561 91.9528922 155.194774 80.4988378 161 69.0471078 155.194774 69.0471078 24.5747008 22.907334 38.4001354 22.907334 46.3614669 -1.94135716e-13 46.3614669 -2.85993451e-13 26.8337284 80.4988378 -4.18516784e-13 161 26.8337284"></polygon>
                    <path d="M97.5833973,111.890179 L29.6712828,111.890179 L5.23868948e-10,56.129993 L160.768512,56.129993 L149.558996,75.6455133 L32.1819787,75.6455232 L40.9049117,92.3746828 L90.575,92.373993 L90.6150912,92.3515311 L141.241213,92.3515311 L110.271807,146.050806 L49.2230368,146.050806 L38.1498046,126.535286 L98.5659398,126.535276 L106.965945,111.867027 L97.623,111.866993 L97.5833973,111.890179 Z" id="Combined-Shape" fill="#3B72EE" fill-rule="nonzero"></path>
                    <rect id="Rectangle-Copy-5" fill="#E0E0E0" x="69.0992092" y="84.6744919" width="22.8594536" height="33.1702873"></rect>
                </g>
            </g>
        </g>
    </g>
</svg>