<svg width="316" height="324" viewBox="0 0 316 324" fill="none" xmlns="http://www.w3.org/2000/svg">
<g id="logo-icon">
<g id="Group">
<g id="Group 2">
<path id="Fill 4" fill-rule="evenodd" clip-rule="evenodd" d="M316 93.2989H271.039V77.2773L180.479 49.4574V312.317L157.998 324L135.521 312.317V49.4547L44.961 77.2773V93.2989H0L0 54.0008L157.998 0L316 54.0008V93.2989Z" fill="white"/>
<path id="Combined Shape" fill-rule="evenodd" clip-rule="evenodd" d="M293.544 152.231L315.546 112.957H0L58.2368 225.17L191.53 225.17L191.609 225.124L209.946 225.124L193.459 254.642L74.8779 254.642L96.6117 293.916H216.434L277.219 185.85L177.853 185.85L177.775 185.897L80.2854 185.897L63.1646 152.231L293.544 152.231Z" fill="#2F87FE"/>
<rect id="Rectangle Copy 5" x="135.623" y="170.401" width="44.867" height="66.7526" fill="white"/>
</g>
</g>
</g>
</svg>
