<svg id="Group_12" data-name="Group 12" xmlns="http://www.w3.org/2000/svg" width="137.529" height="15.647" viewBox="0 0 137.529 15.647">
  <path id="TESLA" d="M67.846,15.647,63.456,4.735,60.3,12.59h3.329v3.057H55.35L61.818.233h3.339l6.49,15.414Zm-25.569-.064V.212h3.654v12.2H53.46v3.174Zm-10.921-.626A9.369,9.369,0,0,1,28.3,13.089l2.069-2.506a10.555,10.555,0,0,0,2.215,1.454,5.3,5.3,0,0,0,2.258.478,2.568,2.568,0,0,0,1.438-.339,1.145,1.145,0,0,0,.515-1.009v-.042a1.424,1.424,0,0,0-.105-.584,1.311,1.311,0,0,0-.41-.435,4.954,4.954,0,0,0-.882-.393,10.949,10.949,0,0,0-1.27-.392l-.211-.064a15.466,15.466,0,0,1-2.068-.626,5.386,5.386,0,0,1-1.6-.87A3.589,3.589,0,0,1,29.245,6.5,4.519,4.519,0,0,1,28.9,4.629V4.586a4.539,4.539,0,0,1,.368-1.847,4.133,4.133,0,0,1,1.1-1.454A5.244,5.244,0,0,1,32.08.319,7.054,7.054,0,0,1,34.254,0,9.1,9.1,0,0,1,37.33.5a8.837,8.837,0,0,1,2.6,1.476L38.129,4.607a12.31,12.31,0,0,0-2.09-1.178,4.642,4.642,0,0,0-1.827-.393,1.985,1.985,0,0,0-1.292.351,1.061,1.061,0,0,0-.452.891v.043a1.221,1.221,0,0,0,.609,1.093,5,5,0,0,0,.945.393q.409.127.966.275l.578.159a15.091,15.091,0,0,1,2.048.69,6.206,6.206,0,0,1,1.523.913,3.448,3.448,0,0,1,.945,1.264,4.293,4.293,0,0,1,.3,1.7v.042a4.576,4.576,0,0,1-.41,1.975A3.94,3.94,0,0,1,38.842,14.3a5.253,5.253,0,0,1-1.785.934,7.715,7.715,0,0,1-2.29.328A10.012,10.012,0,0,1,31.355,14.957Zm-16.644.6V6.348H22.02v3.11H18v2.993H26.41v3.11Zm-10.133,0V3.429H0V.212H12.821V3.429H8.232V15.562ZM14.711,3.344V.233h11.7v3.11Z" transform="translate(0 0)" fill="#fff"/>
  <path id="SAFE" d="M26.535,15.647l-4.4-10.913L18.967,12.59H22.3v3.057H14.009L20.493.233H23.84l6.5,15.414Zm19.387-.086V6.348h7.326v3.11H49.216v2.993h8.43v3.11Zm-42.859-.6A9.39,9.39,0,0,1,0,13.089l2.074-2.506a10.577,10.577,0,0,0,2.22,1.454,5.323,5.323,0,0,0,2.264.478A2.579,2.579,0,0,0,8,12.176a1.146,1.146,0,0,0,.516-1.009v-.042a1.424,1.424,0,0,0-.105-.584A1.3,1.3,0,0,0,8,10.106a4.981,4.981,0,0,0-.884-.393A11.1,11.1,0,0,0,5.842,9.32l-.211-.064A15.552,15.552,0,0,1,3.558,8.63a5.4,5.4,0,0,1-1.6-.87A3.584,3.584,0,0,1,.948,6.5,4.49,4.49,0,0,1,.6,4.629V4.586A4.539,4.539,0,0,1,.968,2.739,4.141,4.141,0,0,1,2.074,1.284,5.258,5.258,0,0,1,3.789.319,7.08,7.08,0,0,1,5.968,0,9.147,9.147,0,0,1,9.052.5a8.864,8.864,0,0,1,2.61,1.476L9.851,4.607A12.364,12.364,0,0,0,7.757,3.429a4.663,4.663,0,0,0-1.832-.393,1.993,1.993,0,0,0-1.294.351,1.059,1.059,0,0,0-.453.891v.043a1.22,1.22,0,0,0,.61,1.093,5.04,5.04,0,0,0,.948.393q.41.127.968.275l.579.159a15.166,15.166,0,0,1,2.052.69,6.216,6.216,0,0,1,1.526.913,3.466,3.466,0,0,1,.948,1.264,4.293,4.293,0,0,1,.305,1.7v.042a4.577,4.577,0,0,1-.41,1.975A3.965,3.965,0,0,1,10.568,14.3a5.271,5.271,0,0,1-1.79.934,7.741,7.741,0,0,1-2.294.328A10.057,10.057,0,0,1,3.063,14.957Zm29.176.584V6.5h8.084V9.67H35.88v5.871Zm0-12.134V.233H44.027V3.407Zm13.683-.064V.233H57.647v3.11Z" transform="translate(79.882 0)" fill="#fff"/>
</svg>
