<?xml version="1.0" encoding="UTF-8"?>
<svg width="656px" height="323px" viewBox="0 0 656 323" version="1.1" xmlns="http://www.w3.org/2000/svg" xmlns:xlink="http://www.w3.org/1999/xlink">
    <title>image-01</title>
    <defs>
        <linearGradient x1="50%" y1="12.6%" x2="50%" y2="94.7%" id="linearGradient-1">
            <stop stop-color="#2E48CD" offset="0%"></stop>
            <stop stop-color="#1F237E" offset="100%"></stop>
        </linearGradient>
        <linearGradient x1="6.4%" y1="87.2070172%" x2="122.6%" y2="-8.12339437%" id="linearGradient-2">
            <stop stop-color="#2E3E9D" offset="0%"></stop>
            <stop stop-color="#79D3FD" offset="100%"></stop>
        </linearGradient>
        <linearGradient x1="-29.9526602%" y1="93.4%" x2="133.234299%" y2="19.9%" id="linearGradient-3">
            <stop stop-color="#2E3E9D" offset="0%"></stop>
            <stop stop-color="#79D3FD" offset="100%"></stop>
        </linearGradient>
        <linearGradient x1="50%" y1="142.4%" x2="50%" y2="-32.7%" id="linearGradient-4">
            <stop stop-color="#002AA2" offset="0%"></stop>
            <stop stop-color="#79D3FD" offset="100%"></stop>
        </linearGradient>
        <linearGradient x1="12%" y1="12%" x2="84.5%" y2="84.5%" id="linearGradient-5">
            <stop stop-color="#F9DD68" offset="0%"></stop>
            <stop stop-color="#F9A942" offset="100%"></stop>
        </linearGradient>
        <linearGradient x1="-37.6000001%" y1="0.6%" x2="126.9%" y2="96.3%" id="linearGradient-6">
            <stop stop-color="#F9DD68" offset="0%"></stop>
            <stop stop-color="#F9A942" offset="100%"></stop>
        </linearGradient>
        <linearGradient x1="-2197.5%" y1="50%" x2="-2296.4%" y2="50%" id="linearGradient-7">
            <stop stop-color="#00006C" offset="0%"></stop>
            <stop stop-color="#5793FB" offset="100%"></stop>
        </linearGradient>
        <linearGradient x1="-2412.6%" y1="100%" x2="-2412.6%" y2="3.8%" id="linearGradient-8">
            <stop stop-color="#5793FB" offset="0%"></stop>
            <stop stop-color="#00009A" offset="99.5%"></stop>
        </linearGradient>
        <linearGradient x1="-645.3%" y1="100%" x2="-645.3%" y2="3.8%" id="linearGradient-9">
            <stop stop-color="#00006C" offset="0%"></stop>
            <stop stop-color="#5793FB" offset="100%"></stop>
        </linearGradient>
        <linearGradient x1="-661.8%" y1="100%" x2="-661.8%" y2="3.8%" id="linearGradient-10">
            <stop stop-color="#A6E5D4" offset="0%"></stop>
            <stop stop-color="#79D3FD" offset="100%"></stop>
        </linearGradient>
        <linearGradient x1="0%" y1="50%" x2="100%" y2="50%" id="linearGradient-11">
            <stop stop-color="#2C89FB" offset="0%"></stop>
            <stop stop-color="#0059FF" offset="100%"></stop>
        </linearGradient>
        <linearGradient x1="0%" y1="50%" x2="100%" y2="50%" id="linearGradient-12">
            <stop stop-color="#A6E5D4" offset="0%"></stop>
            <stop stop-color="#79D3FD" offset="100%"></stop>
        </linearGradient>
        <linearGradient x1="0%" y1="50%" x2="100%" y2="50%" id="linearGradient-13">
            <stop stop-color="#A6E5D4" offset="0%"></stop>
            <stop stop-color="#79D3FD" offset="100%"></stop>
        </linearGradient>
        <linearGradient x1="0%" y1="50%" x2="100%" y2="50%" id="linearGradient-14">
            <stop stop-color="#A6E5D4" offset="0%"></stop>
            <stop stop-color="#79D3FD" offset="100%"></stop>
        </linearGradient>
        <linearGradient x1="0%" y1="50%" x2="100%" y2="50%" id="linearGradient-15">
            <stop stop-color="#A6E5D4" offset="0%"></stop>
            <stop stop-color="#79D3FD" offset="100%"></stop>
        </linearGradient>
        <linearGradient x1="0%" y1="50%" x2="100%" y2="50%" id="linearGradient-16">
            <stop stop-color="#A6E5D4" offset="0%"></stop>
            <stop stop-color="#79D3FD" offset="100%"></stop>
        </linearGradient>
        <linearGradient x1="-6620.8%" y1="50%" x2="-6520.8%" y2="50%" id="linearGradient-17">
            <stop stop-color="#FFFFFF" offset="0%"></stop>
            <stop stop-color="#E2F5FF" offset="100%"></stop>
        </linearGradient>
        <linearGradient x1="-6620.8%" y1="50%" x2="-6520.8%" y2="50%" id="linearGradient-18">
            <stop stop-color="#FFFFFF" offset="0%"></stop>
            <stop stop-color="#E2F5FF" offset="100%"></stop>
        </linearGradient>
        <linearGradient x1="-6620.8%" y1="50%" x2="-6520.8%" y2="50%" id="linearGradient-19">
            <stop stop-color="#FFFFFF" offset="0%"></stop>
            <stop stop-color="#E2F5FF" offset="100%"></stop>
        </linearGradient>
        <linearGradient x1="-13325.3%" y1="50%" x2="-13225.3%" y2="50%" id="linearGradient-20">
            <stop stop-color="#FFFFFF" offset="0%"></stop>
            <stop stop-color="#E2F5FF" offset="100%"></stop>
        </linearGradient>
        <linearGradient x1="-5506.8%" y1="50%" x2="-5406.8%" y2="50%" id="linearGradient-21">
            <stop stop-color="#FFFFFF" offset="0%"></stop>
            <stop stop-color="#E2F5FF" offset="100%"></stop>
        </linearGradient>
        <linearGradient x1="-5506.8%" y1="50%" x2="-5406.8%" y2="50%" id="linearGradient-22">
            <stop stop-color="#FFFFFF" offset="0%"></stop>
            <stop stop-color="#E2F5FF" offset="100%"></stop>
        </linearGradient>
        <linearGradient x1="-5506.9%" y1="50%" x2="-5406.9%" y2="50%" id="linearGradient-23">
            <stop stop-color="#FFFFFF" offset="0%"></stop>
            <stop stop-color="#E2F5FF" offset="100%"></stop>
        </linearGradient>
        <linearGradient x1="-11098.9%" y1="50%" x2="-10998.9%" y2="50%" id="linearGradient-24">
            <stop stop-color="#FFFFFF" offset="0%"></stop>
            <stop stop-color="#E2F5FF" offset="100%"></stop>
        </linearGradient>
        <linearGradient x1="-5460.7%" y1="50%" x2="-5360.7%" y2="50%" id="linearGradient-25">
            <stop stop-color="#FFFFFF" offset="0%"></stop>
            <stop stop-color="#E2F5FF" offset="100%"></stop>
        </linearGradient>
        <linearGradient x1="-5460.7%" y1="50%" x2="-5360.7%" y2="50%" id="linearGradient-26">
            <stop stop-color="#FFFFFF" offset="0%"></stop>
            <stop stop-color="#E2F5FF" offset="100%"></stop>
        </linearGradient>
        <linearGradient x1="-11007.9%" y1="50%" x2="-10907.9%" y2="50%" id="linearGradient-27">
            <stop stop-color="#FFFFFF" offset="0%"></stop>
            <stop stop-color="#E2F5FF" offset="100%"></stop>
        </linearGradient>
        <linearGradient x1="50%" y1="100%" x2="50%" y2="2.1%" id="linearGradient-28">
            <stop stop-color="#8AFFFF" offset="0%"></stop>
            <stop stop-color="#79D3FD" stop-opacity="0" offset="100%"></stop>
        </linearGradient>
        <linearGradient x1="50%" y1="100%" x2="50%" y2="2.1%" id="linearGradient-29">
            <stop stop-color="#8AFFFF" offset="0%"></stop>
            <stop stop-color="#79D3FD" stop-opacity="0" offset="100%"></stop>
        </linearGradient>
        <linearGradient x1="50%" y1="119.2%" x2="50%" y2="10.5%" id="linearGradient-30">
            <stop stop-color="#8AFFFF" offset="0%"></stop>
            <stop stop-color="#423BFD" offset="100%"></stop>
        </linearGradient>
        <linearGradient x1="50%" y1="99.8%" x2="50%" y2="15.1%" id="linearGradient-31">
            <stop stop-color="#8AFFFF" offset="0%"></stop>
            <stop stop-color="#79D3FD" offset="100%"></stop>
        </linearGradient>
        <linearGradient x1="0%" y1="50%" x2="100%" y2="50%" id="linearGradient-32">
            <stop stop-color="#8AFFFF" offset="0%"></stop>
            <stop stop-color="#79D3FD" offset="100%"></stop>
        </linearGradient>
        <linearGradient x1="-1.4%" y1="50%" x2="127.8%" y2="50%" id="linearGradient-33">
            <stop stop-color="#2E3E9D" offset="0%"></stop>
            <stop stop-color="#79D3FD" offset="100%"></stop>
        </linearGradient>
        <linearGradient x1="66.6%" y1="34.8070963%" x2="36.1%" y2="92.7614839%" id="linearGradient-34">
            <stop stop-color="#F9DD68" offset="0%"></stop>
            <stop stop-color="#F9A942" offset="100%"></stop>
        </linearGradient>
        <linearGradient x1="0%" y1="50%" x2="100%" y2="50%" id="linearGradient-35">
            <stop stop-color="#F9DD68" offset="0%"></stop>
            <stop stop-color="#F9A942" offset="100%"></stop>
        </linearGradient>
        <linearGradient x1="0%" y1="50%" x2="100%" y2="50%" id="linearGradient-36">
            <stop stop-color="#F9DD68" offset="0%"></stop>
            <stop stop-color="#F9A942" offset="100%"></stop>
        </linearGradient>
        <linearGradient x1="0%" y1="50%" x2="100%" y2="50%" id="linearGradient-37">
            <stop stop-color="#F9DD68" offset="0%"></stop>
            <stop stop-color="#F9A942" offset="100%"></stop>
        </linearGradient>
        <linearGradient x1="0%" y1="50%" x2="100%" y2="50%" id="linearGradient-38">
            <stop stop-color="#F9DD68" offset="0%"></stop>
            <stop stop-color="#F9A942" offset="100%"></stop>
        </linearGradient>
        <linearGradient x1="0%" y1="50%" x2="100%" y2="50%" id="linearGradient-39">
            <stop stop-color="#F9DD68" offset="0%"></stop>
            <stop stop-color="#F9A942" offset="100%"></stop>
        </linearGradient>
        <linearGradient x1="0%" y1="50%" x2="100%" y2="50%" id="linearGradient-40">
            <stop stop-color="#F9DD68" offset="0%"></stop>
            <stop stop-color="#F9A942" offset="100%"></stop>
        </linearGradient>
        <linearGradient x1="0%" y1="50%" x2="100%" y2="50%" id="linearGradient-41">
            <stop stop-color="#F9DD68" offset="0%"></stop>
            <stop stop-color="#F9A942" offset="100%"></stop>
        </linearGradient>
        <linearGradient x1="0%" y1="50%" x2="100%" y2="50%" id="linearGradient-42">
            <stop stop-color="#F9DD68" offset="0%"></stop>
            <stop stop-color="#F9A942" offset="100%"></stop>
        </linearGradient>
        <linearGradient x1="0%" y1="50%" x2="100%" y2="50%" id="linearGradient-43">
            <stop stop-color="#00FFFF" offset="0%"></stop>
            <stop stop-color="#5793FB" offset="100%"></stop>
        </linearGradient>
        <linearGradient x1="0%" y1="50%" x2="100%" y2="50%" id="linearGradient-44">
            <stop stop-color="#00FFFF" offset="0%"></stop>
            <stop stop-color="#5793FB" offset="100%"></stop>
        </linearGradient>
        <linearGradient x1="50%" y1="4.8%" x2="50%" y2="82.2%" id="linearGradient-45">
            <stop stop-color="#00004F" offset="0%"></stop>
            <stop stop-color="#000079" offset="100%"></stop>
        </linearGradient>
        <linearGradient x1="50%" y1="3.4%" x2="50%" y2="80.4%" id="linearGradient-46">
            <stop stop-color="#00006C" offset="0%"></stop>
            <stop stop-color="#3049B9" offset="100%"></stop>
        </linearGradient>
        <linearGradient x1="50%" y1="3.4%" x2="50%" y2="80.4%" id="linearGradient-47">
            <stop stop-color="#00004F" offset="0%"></stop>
            <stop stop-color="#000079" offset="100%"></stop>
        </linearGradient>
        <linearGradient x1="50%" y1="-14.2%" x2="50%" y2="93.1%" id="linearGradient-48">
            <stop stop-color="#00B5FF" offset="0%"></stop>
            <stop stop-color="#3049B9" offset="100%"></stop>
        </linearGradient>
        <linearGradient x1="50%" y1="99.6%" x2="50%" y2="11.9%" id="linearGradient-49">
            <stop stop-color="#7995FD" offset="0%"></stop>
            <stop stop-color="#54DEFF" offset="100%"></stop>
        </linearGradient>
        <linearGradient x1="78.5081505%" y1="106.5%" x2="26.4278897%" y2="20.9%" id="linearGradient-50">
            <stop stop-color="#7995FD" offset="0%"></stop>
            <stop stop-color="#54DEFF" offset="100%"></stop>
        </linearGradient>
        <linearGradient x1="42.802133%" y1="15.5%" x2="66.3951414%" y2="105.4%" id="linearGradient-51">
            <stop stop-color="#00006C" offset="0%"></stop>
            <stop stop-color="#5793FB" offset="100%"></stop>
        </linearGradient>
        <linearGradient x1="41.7024589%" y1="7.3%" x2="60.396919%" y2="99.7%" id="linearGradient-52">
            <stop stop-color="#00006C" offset="0%"></stop>
            <stop stop-color="#5793FB" offset="100%"></stop>
        </linearGradient>
        <linearGradient x1="107%" y1="23.8922655%" x2="2.9%" y2="86.5108165%" id="linearGradient-53">
            <stop stop-color="#00006C" offset="0%"></stop>
            <stop stop-color="#3049B9" offset="100%"></stop>
        </linearGradient>
        <linearGradient x1="-27.3%" y1="67.3051267%" x2="47.8%" y2="35.5957327%" id="linearGradient-54">
            <stop stop-color="#00FFFF" offset="0%"></stop>
            <stop stop-color="#5793FB" offset="100%"></stop>
        </linearGradient>
        <linearGradient x1="4.6%" y1="23.6922062%" x2="93.8%" y2="102.815647%" id="linearGradient-55">
            <stop stop-color="#00FFFF" offset="0%"></stop>
            <stop stop-color="#5793FB" offset="100%"></stop>
        </linearGradient>
        <linearGradient x1="67.1949044%" y1="-4.7%" x2="31.7054214%" y2="94.6%" id="linearGradient-56">
            <stop stop-color="#000051" offset="0%"></stop>
            <stop stop-color="#30389C" offset="100%"></stop>
        </linearGradient>
        <linearGradient x1="54.4986669%" y1="13.3%" x2="37.9035847%" y2="98.3%" id="linearGradient-57">
            <stop stop-color="#000051" offset="0%"></stop>
            <stop stop-color="#30389C" offset="100%"></stop>
        </linearGradient>
        <linearGradient x1="50%" y1="104.2%" x2="50%" y2="24.8%" id="linearGradient-58">
            <stop stop-color="#7995FD" offset="0%"></stop>
            <stop stop-color="#54DEFF" offset="100%"></stop>
        </linearGradient>
        <linearGradient x1="50%" y1="99.4%" x2="50%" y2="15.2%" id="linearGradient-59">
            <stop stop-color="#7995FD" offset="0%"></stop>
            <stop stop-color="#54DEFF" offset="100%"></stop>
        </linearGradient>
        <linearGradient x1="82.4919713%" y1="96%" x2="12.209338%" y2="-3.5%" id="linearGradient-60">
            <stop stop-color="#160EC0" offset="0%"></stop>
            <stop stop-color="#5451FF" offset="100%"></stop>
        </linearGradient>
        <linearGradient x1="50%" y1="79.8%" x2="50%" y2="27.2%" id="linearGradient-61">
            <stop stop-color="#7995FD" offset="0%"></stop>
            <stop stop-color="#54DEFF" offset="100%"></stop>
        </linearGradient>
    </defs>
    <g id="Page-1" stroke="none" stroke-width="1" fill="none" fill-rule="evenodd">
        <g id="Home" transform="translate(-638.000000, -1504.000000)">
            <g id="image-01" transform="translate(638.000000, 1504.000000)">
                <g id="Group-68">
                    <path d="M119.999277,323 C111.524797,286.865536 121.019342,262.112386 148.349509,243.521908 C168.244813,229.990048 209.300439,218.845892 223.508906,199.428813 C229.6293,191.068393 233.012651,181.078947 237.299917,171.644406 C255.738148,131.076456 296.434969,98.3865489 340.926848,100.061626 C370.942306,101.192159 398.591028,117.260236 421.083071,137.179263 C437.269568,151.510094 452.231297,168.483058 472.513006,175.948951 C492.868317,183.440173 535.413216,189.252863 552.302374,202.86416 C605.80694,245.985595 588.952283,302.604353 581.465669,322.863001" id="Path_1" fill="url(#linearGradient-1)" fill-rule="nonzero" opacity="0.67" style="mix-blend-mode: screen;"></path>
                    <g id="Group_2" transform="translate(163.000000, 241.000000)" fill-rule="nonzero">
                        <path d="M255.834544,63.4912144 C255.834544,63.4912144 280.03934,27.9045239 292.270671,45.9778112 C303.782512,62.9902048 261.010268,71.8167476 261.010268,71.8167476" id="Path_2" fill="url(#linearGradient-2)"></path>
                        <path d="M104.31915,39.9553061 C104.31915,39.9553061 72.9332671,10.5435015 92.6070029,1.17439067 C111.127252,-7.64407134 113.311049,36.0938379 113.311049,36.0938379" id="Path_3" fill="url(#linearGradient-3)"></path>
                        <path d="M322,81 L0,81 C0.198003661,80.2565664 1.38832799,79.0098143 4.58861972,76.9595998 C11.4393162,72.5301668 33.0758208,76.5082294 33.0758208,76.5082294 C33.0758208,76.5082294 28.0370881,74.4926469 28.0635654,71.8663868 C28.2762214,69.2036268 29.9632284,66.8867157 32.4277042,65.8727417 C34.8718381,64.9268891 37.5061158,64.580951 40.1107067,64.863796 C45.4180115,65.1734231 50.6397114,66.3470065 55.5711089,68.3385402 C54.1218423,67.4676709 53.2828405,65.8546312 53.4000065,64.1644436 C53.5171724,62.4742561 54.5706649,60.9931405 56.126151,60.3317298 C57.6816371,59.6703191 59.4757077,59.940618 60.768705,61.0311879 C57.4360271,56.5290277 49.6413597,33.7873466 65.4321516,24.9723478 C85.2325177,13.9258937 102.929671,25.7423326 106.129962,32.3859049 C107.756585,25.8612358 115.224316,20.8834628 120.147931,19.6944307 C143.625179,14.0378705 160.775519,34.256033 161,34.6011986 C161.224097,34.2556482 161.462009,33.9093282 161.713734,33.5622386 C164.173814,30.2860512 169.133115,24.3709054 172.849138,22.6335333 C183.324913,17.727333 190.62342,16.8915474 201.852069,19.6898131 C206.771079,20.910014 214.243415,25.8566182 215.870038,32.3812873 C219.070329,25.737715 237.041464,10.8159399 256.298471,22.7859141 C273.796469,33.6649802 264.563973,56.5186381 261.231295,61.0265703 C262.524292,59.9360004 264.318363,59.6657015 265.873849,60.3271122 C267.429335,60.9885229 268.482828,62.4696385 268.599994,64.159826 C268.717159,65.8500136 267.878158,67.4630533 266.428891,68.3339226 C271.360289,66.3423889 276.581988,65.1688055 281.889293,64.8591784 C284.493884,64.5763334 287.128162,64.9222715 289.572296,65.8681241 C292.036601,66.8823165 293.723519,69.1991057 293.936435,71.8617692 C293.962912,74.4880293 288.924179,76.5036118 288.924179,76.5036118 C288.924179,76.5036118 310.560684,72.5255492 317.41138,76.9549822 C320.611672,79.0075055 321.807752,80.2565664 322,81 Z" id="Path_4" fill="url(#linearGradient-4)"></path>
                    </g>
                    <g id="Group_6" transform="translate(152.000000, 23.000000)" fill-rule="nonzero">
                        <g id="Group_4" fill="url(#linearGradient-5)">
                            <path d="M23,46 C10.2976027,46 0,35.7027863 0,23.000389 C0,10.2979917 10.2968246,0 22.9992219,0 C35.7016192,0 45.9993554,10.2964355 46,22.9988328 C45.9858502,35.6957054 35.6968719,45.9852059 23,46 L23,46 Z M23,3.03577589 C11.9772865,3.03577589 3.04161166,11.9714507 3.04161166,22.9941642 C3.04161166,34.0168777 11.9772865,42.9525525 23,42.9525525 C34.0227135,42.9525525 42.9583883,34.0168777 42.9583883,22.9941642 C42.9429593,11.977848 34.0163162,3.05120493 23,3.03577589 L23,3.03577589 Z" id="Path_10"></path>
                        </g>
                        <g id="Group_5" transform="translate(12.867475, 5.598853)" fill="url(#linearGradient-6)">
                            <path d="M20.2599479,22.8330965 C20.3214663,21.5148712 19.924275,20.2160598 19.1359755,19.1577185 C18.3744588,18.2218364 17.3938828,17.4882084 16.281109,17.0218208 C14.984474,16.5020449 13.6490339,16.0848662 12.287097,15.7741297 L12.287097,8.35334416 C13.4509674,8.49974036 14.5922012,8.78985132 15.6846917,9.2170405 C16.7076767,9.6360008 17.8766078,9.14637701 18.2956224,8.12341419 C18.5057169,7.61369449 18.5023529,7.04096261 18.2862851,6.53374607 C18.0952873,6.07816721 17.7307374,5.71739724 17.2731926,5.53115802 C15.6713509,4.92926098 13.9929386,4.55523277 12.287097,4.42002436 L12.287097,2.15924084 C12.287097,0.966725053 11.320372,0 10.1278562,0 C8.9353404,0 7.96861534,0.966725053 7.96861534,2.15924084 L7.96861534,4.51339694 C5.7952772,4.69965895 3.74003626,5.58217228 2.10831898,7.02978788 C0.738537346,8.32085193 -0.0241017237,10.1291539 0.0074359998,12.0112149 C-0.0600415597,13.3375616 0.333357424,14.6464173 1.12090398,15.7157719 C1.89182435,16.659542 2.88251993,17.3997583 4.00611661,17.8715112 C5.29321199,18.4027845 6.6200767,18.8320643 7.97445113,19.1553842 L7.97445113,26.4792957 C6.68102694,26.3360271 5.40992874,26.0354005 4.18936029,25.5840861 C3.75401065,25.4218512 3.32916542,25.249112 2.93466629,25.0576982 C2.69705861,24.945288 2.43769974,24.8863247 2.17484694,24.8849589 C1.95055698,24.8838348 1.72792093,24.9233794 1.51773743,25.0016746 C1.0001396,25.1931552 0.580132334,25.5829219 0.35058022,26.0847965 C-0.0971461105,27.0943704 0.343442868,28.2767039 1.34266385,28.7470821 C1.93946794,29.0183193 2.55127646,29.2552489 3.17510067,29.4567137 C4.73041412,29.9587548 6.34146074,30.2680288 7.97211681,30.3776007 L7.97211681,32.6360499 C7.97211681,33.8285657 8.93884187,34.7952908 10.1313577,34.7952908 C11.3238734,34.7952908 12.2905985,33.8285657 12.2905985,32.6360499 L12.2905985,30.2492134 C14.4677451,30.0534975 16.5260344,29.1696799 18.1672351,27.7258196 C19.5248666,26.4639163 20.2851223,24.6864528 20.2599479,22.8330965 L20.2599479,22.8330965 Z M5.90391423,13.6300619 C5.32707404,13.159963 4.99863835,12.4505764 5.01337328,11.7065868 C5.00599593,10.9455678 5.29624341,10.211782 5.82221323,9.6617274 C6.41307939,9.0806972 7.15716555,8.67991086 7.96744818,8.50624176 L7.96744818,14.6746676 C7.22071275,14.4621388 6.52202927,14.1074469 5.90975002,13.6300619 L5.90391423,13.6300619 Z M14.4241619,25.2514463 C13.8251733,25.795974 13.0878143,26.1650573 12.2929328,26.318228 L12.2929328,20.2490105 C13.0490886,20.488148 13.754594,20.8648396 14.3739741,21.3601441 C14.9395011,21.8326041 15.2598189,22.5363585 15.2446734,23.2731148 C15.2553614,24.0174298 14.9585037,24.733182 14.4241619,25.2514463 L14.4241619,25.2514463 Z" id="Path_11"></path>
                        </g>
                    </g>
                    <g id="Group_11" transform="translate(446.000000, 100.000000)" fill-rule="nonzero">
                        <rect id="Rectangle_3" fill="url(#linearGradient-7)" transform="translate(62.125971, 142.069533) rotate(180.000000) translate(-62.125971, -142.069533) " x="42.1329415" y="62.1390665" width="39.9860596" height="159.860933"></rect>
                        <rect id="Rectangle_4" fill="url(#linearGradient-8)" transform="translate(58.351569, 142.069533) rotate(180.000000) translate(-58.351569, -142.069533) " x="39.8886093" y="62.1390665" width="36.9259195" height="159.860933"></rect>
                        <path d="M0.635744095,101.500044 L6.30165021,100.826354 L21.4371236,5.3791963 C21.5815662,4.4701275 22.3653423,3.80100859 23.2855997,3.80113051 L127.959142,3.80113051 L128.99181,0.529082829 L133.145431,3.16301809 C133.189033,3.19171019 133.234929,3.21581156 133.276236,3.24679904 L133.288857,3.25598051 L133.288857,3.25598051 C133.818931,3.67420537 134.082137,4.34597937 133.977303,5.01308503 L118.401224,103.237638 C118.257288,104.147163 117.473376,104.816852 116.552748,104.816852 L6.30623985,104.816852 C5.84410949,104.815039 5.39931162,104.640679 5.05900616,104.327938 L5.05900616,104.338267 L0.635744095,101.500044 Z" id="Path_12" fill="url(#linearGradient-9)"></path>
                        <path d="M1.87150369,101.967152 L112.108833,101.967152 C113.02909,101.967152 113.812866,101.298155 113.957309,100.389086 L129.533387,2.16453283 C129.618979,1.62368226 129.463512,1.07246452 129.107943,0.656100181 C128.752375,0.23973584 128.232364,6.52382942e-14 127.684911,6.52382942e-14 L17.4475822,6.52382942e-14 C16.5271471,6.52382942e-14 15.7431004,0.66874609 15.5991061,1.5780662 L0.0230276378,99.8026192 C-0.0625643861,100.34347 0.0929031185,100.894688 0.448471605,101.311052 C0.804040091,101.727416 1.3240504,101.967152 1.87150369,101.967152 L1.87150369,101.967152 Z" id="Path_13" fill="url(#linearGradient-10)"></path>
                        <path d="M7.02681276,97.3029639 L108.215674,97.3029639 C108.800119,97.3029639 109.297995,96.878415 109.389473,96.3010347 L123.703402,6.03911472 C123.758515,5.69526714 123.660153,5.34453699 123.434287,5.07952755 C123.20842,4.81451811 122.877757,4.66189321 122.529602,4.66189321 L21.3407412,4.66189321 C20.7560392,4.66189321 20.2577888,5.08626359 20.1657943,5.66382198 L5.85301326,95.925742 C5.79748856,96.2696597 5.89570055,96.6206212 6.12165429,96.8857331 C6.34760803,97.150845 6.67852329,97.3029639 7.02681276,97.3029639 Z" id="Path_14" fill="url(#linearGradient-11)"></path>
                        <path d="M42.0686866,54.7606048 L75.7049842,54.7606048 C76.4445737,54.7601121 77.0740828,54.2219329 77.1897316,53.491266 L81.9147623,23.6985316 C81.9835385,23.2636666 81.85859,22.8204774 81.572806,22.4856216 C81.287022,22.1507658 80.8690346,21.9574947 80.4288675,21.9574947 L46.7925698,21.9574947 C46.0529804,21.9579873 45.4234713,22.4961666 45.3078225,23.2268334 L40.5827918,53.0207155 C40.513979,53.4554724 40.6389499,53.8985668 40.9247772,54.2332526 C41.2106046,54.5679385 41.6286204,54.7606048 42.0686866,54.7606048 L42.0686866,54.7606048 Z" id="Path_15" fill="url(#linearGradient-12)"></path>
                        <g id="Group_7" transform="translate(45.612774, 24.876942)" fill="#EDF7FF">
                            <path d="M2.85042378,25.8392231 L0.528067773,25.8392231 C0.371405536,25.8442224 0.221092659,25.7771337 0.12017781,25.6571707 C0.0192629602,25.5372076 -0.0211229797,25.3776022 0.0105862706,25.2240644 L2.79075851,7.72302788 C2.85339507,7.37548838 3.15041995,7.11905761 3.50329956,7.10786914 L5.82565557,7.10786914 C5.98231781,7.10286981 6.13263069,7.16995857 6.23354554,7.2899216 C6.33446039,7.40988463 6.37484632,7.56949006 6.34313707,7.72302788 L3.56296483,25.2240644 C3.50032828,25.5716039 3.2033034,25.8280347 2.85042378,25.8392231 Z" id="Path_16"></path>
                            <path d="M8.84678372,25.8392231 L6.5232803,25.8392231 C6.36661807,25.8442224 6.21630519,25.7771337 6.11539034,25.6571707 C6.01447549,25.5372076 5.97408955,25.3776022 6.0057988,25.2240644 L8.20997167,11.3508577 C8.27260823,11.0033182 8.56963311,10.7468874 8.92251272,10.7356989 L11.2460161,10.7356989 C11.4026259,10.7306086 11.5529007,10.7977256 11.6536525,10.9177609 C11.7544043,11.0377963 11.7944756,11.1974571 11.7623502,11.3508577 L9.55932477,25.2240644 C9.49668822,25.5716039 9.19966334,25.8280347 8.84678372,25.8392231 Z" id="Path_17"></path>
                            <path d="M14.8419963,25.8392231 L12.5196402,25.8392231 C12.362978,25.8442224 12.2126651,25.7771337 12.1117503,25.6571707 C12.0108354,25.5372076 11.9704495,25.3776022 12.0021587,25.2240644 L14.6171041,8.75938672 C14.6797406,8.41184722 14.9767655,8.15541645 15.3296451,8.14422798 L17.6531485,8.14422798 C17.8098108,8.13922865 17.9601237,8.20631741 18.0610385,8.32628044 C18.1619534,8.44624348 18.2023393,8.6058489 18.17063,8.75938672 L15.5545373,25.2240644 C15.4919007,25.5716039 15.1948759,25.8280347 14.8419963,25.8392231 Z" id="Path_18"></path>
                            <path d="M20.8383562,25.8392231 L18.5148528,25.8392231 C18.3581905,25.8442224 18.2078777,25.7771337 18.1069628,25.6571707 C18.006048,25.5372076 17.965662,25.3776022 17.9973713,25.2240644 L21.9065941,0.615419571 C21.9692306,0.267880069 22.2662555,0.0114492992 22.6191351,0.000260835216 L24.9414911,0.000260835216 C25.0981534,-0.00473849259 25.2484662,0.0623502603 25.3493811,0.182313294 C25.4502959,0.302276329 25.4906819,0.461881753 25.4589726,0.615419571 L21.5508972,25.2240644 C21.4882607,25.5716039 21.1912358,25.8280347 20.8383562,25.8392231 Z" id="Path_19"></path>
                            <path d="M26.8335687,25.8392231 L24.5112127,25.8392231 C24.3545505,25.8442224 24.2042376,25.7771337 24.1033227,25.6571707 C24.0024079,25.5372076 23.962022,25.3776022 23.9937312,25.2240644 L27.0917358,5.72376199 C27.1543723,5.37622248 27.4513972,5.11979171 27.8042768,5.10860325 L30.1277802,5.10860325 C30.2844425,5.10360392 30.4347554,5.17069267 30.5356702,5.29065571 C30.6365851,5.41061874 30.676971,5.57022417 30.6452617,5.72376199 L27.5472572,25.2240644 C27.4845293,25.5720137 27.1868844,25.8285667 26.8335687,25.8392231 Z" id="Path_20"></path>
                        </g>
                        <path d="M84.7477153,75.7815887 L103.211823,75.7815887 C103.61782,75.7810646 103.963437,75.4859308 104.02763,75.0849444 L106.620775,58.7304444 C106.658714,58.4916445 106.590183,58.2482044 106.433243,58.064292 C106.276304,57.8803796 106.046706,57.7744235 105.804967,57.7744235 L87.3408599,57.7744235 C86.9346855,57.7744235 86.5887988,58.0698308 86.525052,58.4710678 L83.9319075,74.8255678 C83.8943762,75.0642973 83.9630566,75.3075079 84.1199092,75.4913188 C84.2767619,75.6751298 84.5061105,75.7811705 84.7477153,75.7815887 L84.7477153,75.7815887 Z" id="Path_21" fill="url(#linearGradient-13)" opacity="0.5"></path>
                        <path d="M47.0209042,88.2523254 L88.008652,88.2523254 C88.5611024,88.2518605 89.0313831,87.8500559 89.1181966,87.3043382 L92.6464795,65.0530367 C92.6978326,64.728404 92.6045026,64.3975575 92.3910757,64.1476535 C92.1776489,63.8977496 91.8655275,63.7538582 91.536935,63.7538582 L50.5491872,63.7538582 C49.9967368,63.7543231 49.5264561,64.1561276 49.4396426,64.7018454 L45.9113596,86.9519991 C45.859634,87.2768105 45.9527929,87.6079818 46.1662632,87.8581574 C46.3797335,88.1083331 46.6920769,88.2523254 47.0209042,88.2523254 Z" id="Path_22" fill="url(#linearGradient-14)" opacity="0.3"></path>
                        <path d="M51.8411698,73.3014432 L50.349538,82.7021245 L86.4022792,82.7021245 L88.2461657,71.0749358 C86.5146084,70.3681812 84.548246,70.5426308 82.9680838,71.5431909 C80.5906522,72.8492556 77.1449827,76.6171028 74.7652562,76.3485447 C72.3855297,76.0799866 70.9134039,69.9995557 67.6754154,70.04202 C64.4374269,70.0844843 61.8018282,76.7467911 59.2086837,76.8133568 C56.6155391,76.8799225 53.5324509,73.2279914 51.8411698,73.3014432 Z" id="Path_23" fill="url(#linearGradient-15)"></path>
                        <path d="M89.9385941,30.0589987 L109.857616,30.0589987 C110.125818,30.0595387 110.354551,29.8648257 110.396898,29.5999238 L112.112275,18.7852955 C112.137503,18.6274875 112.092231,18.4665548 111.988433,18.3450601 C111.884635,18.2235655 111.732767,18.1537467 111.572993,18.1540681 L91.6528233,18.1540681 C91.3847979,18.1540681 91.156335,18.3484925 91.113541,18.6131429 L89.3993118,29.4266235 C89.3741214,29.5845395 89.4193709,29.7455663 89.5231251,29.8672307 C89.6268793,29.9888951 89.7787189,30.0589987 89.9385941,30.0589987 Z" id="Path_24" fill="url(#linearGradient-16)" opacity="0.5"></path>
                        <g id="Group_8" transform="translate(92.307565, 33.566274)">
                            <path d="M1.15128062,1.13625353 L11.7280977,1.13625353 C12.0497215,1.12395991 12.319906,0.890411193 12.3786786,0.573888267 L12.3786786,0.573888267 C12.4075217,0.4336051 12.3705951,0.287833025 12.2784474,0.178213606 C12.1862997,0.068594187 12.049065,0.00718303958 11.9059461,0.0115230043 L1.33371866,0.0115230043 C1.01165849,0.0232915167 0.740859206,0.256959583 0.681990296,0.573888267 L0.681990296,0.573888267 C0.653300935,0.713566046 0.689805788,0.858708176 0.781158899,0.968179465 C0.872512009,1.07765075 1.00875714,1.13952033 1.15128062,1.13625353 L1.15128062,1.13625353 Z" id="Path_25" fill="url(#linearGradient-17)"></path>
                            <path d="M0.81738457,3.24569711 L11.3838749,3.24569711 C11.7059351,3.23392859 11.9767344,3.00026053 12.0356033,2.68333184 L12.0356033,2.68333184 C12.0644464,2.54304868 12.0275198,2.3972766 11.9353721,2.28765718 C11.8432244,2.17803776 11.7059897,2.11662662 11.5628708,2.12096658 L0.990643343,2.12096658 C0.668583166,2.13273509 0.397783887,2.36640316 0.338914977,2.68333184 L0.338914977,2.68333184 C0.309794784,2.82463326 0.347420691,2.97147259 0.440901043,3.08134395 C0.534381395,3.1912153 0.673278154,3.25185042 0.81738457,3.24569711 Z" id="Path_26" fill="url(#linearGradient-18)"></path>
                            <path d="M0.483488523,5.35514068 L11.0545685,5.35514068 C11.3766287,5.34337217 11.647428,5.1097041 11.7062969,4.79277542 L11.7062969,4.79277542 C11.73514,4.65249225 11.6982134,4.50672018 11.6060657,4.39710076 C11.513918,4.28748134 11.3766833,4.22607019 11.2335643,4.23041016 L0.661336933,4.23041016 C0.339276755,4.24217867 0.0684774759,4.47584674 0.00960856581,4.79277542 L0.00960856581,4.79277542 C-0.0192878201,4.9332613 0.0177789817,5.07924508 0.110192374,5.18891438 C0.202605766,5.29858368 0.340171589,5.35984082 0.483488523,5.35514068 Z" id="Path_27" fill="url(#linearGradient-19)"></path>
                            <path d="M5.99678923,7.46458426 L10.7206725,7.46458426 C11.0427327,7.45281574 11.3135319,7.21914768 11.3724008,6.90221899 L11.3724008,6.90221899 C11.4012972,6.76173311 11.3642304,6.61574933 11.271817,6.50608004 C11.1794036,6.39641074 11.0418378,6.33515359 10.8985209,6.33985373 L6.17578505,6.33985373 C5.85372487,6.35162224 5.58292559,6.58529031 5.52405668,6.90221899 L5.52405668,6.90221899 C5.49521361,7.04250216 5.53214019,7.18827424 5.62428789,7.29789366 C5.7164356,7.40751307 5.8536703,7.46892422 5.99678923,7.46458426 Z" id="Path_28" fill="url(#linearGradient-20)"></path>
                        </g>
                        <g id="Group_9" transform="translate(21.342614, 69.767705)">
                            <path d="M1.15012567,1.13622563 L11.7223531,1.13622563 C12.0444133,1.12445711 12.3152125,0.890789046 12.3740815,0.573860363 L12.3740815,0.573860363 C12.4029778,0.433374478 12.365911,0.2873907 12.2734976,0.177721404 C12.1810843,0.068052107 12.0435184,0.00679495708 11.9002015,0.0114951008 L1.32797408,0.0114951008 C1.00635023,0.0237887177 0.736165781,0.257337437 0.677393125,0.573860363 L0.677393125,0.573860363 C0.648550053,0.71414353 0.685476632,0.859915605 0.777624335,0.969535024 C0.869772038,1.07915444 1.00700674,1.14056559 1.15012567,1.13622563 Z" id="Path_29" fill="url(#linearGradient-21)"></path>
                            <path d="M0.816229626,3.25025994 L11.388457,3.25025994 C11.7105172,3.23849143 11.9813165,3.00482336 12.0401854,2.68789468 L12.0401854,2.68789468 C12.0690818,2.54740879 12.032015,2.40142501 11.9396016,2.29175572 C11.8471882,2.18208642 11.7096224,2.12082927 11.5663055,2.12552941 L0.997520263,2.12552941 C0.675896412,2.13782303 0.405711961,2.37137175 0.346939305,2.68789468 L0.346939305,2.68789468 C0.317786456,2.8276367 0.35411858,2.97304138 0.445572211,3.08263312 C0.537025843,3.19222487 0.673560106,3.25397138 0.816229626,3.25025994 Z" id="Path_30" fill="url(#linearGradient-22)"></path>
                            <path d="M0.482333579,5.35511278 L11.054561,5.35511278 C11.3766212,5.34334427 11.6474205,5.1096762 11.7062894,4.79274752 L11.7062894,4.79274752 C11.7351857,4.65226163 11.6981189,4.50627785 11.6057056,4.39660856 C11.5132922,4.28693926 11.3757263,4.22568211 11.2324094,4.23038225 L0.660181989,4.23038225 C0.338558138,4.24267587 0.0683736871,4.47622459 0.00960103077,4.79274752 L0.00960103077,4.79274752 C-0.0192420411,4.93303068 0.0176845375,5.07880276 0.109832241,5.18842218 C0.201979944,5.2980416 0.339214643,5.35945274 0.482333579,5.35511278 Z" id="Path_31" fill="url(#linearGradient-23)"></path>
                            <path d="M5.9967817,7.46455635 L10.7206649,7.46455635 C11.0427251,7.45278784 11.3135244,7.21911977 11.3723933,6.90219109 L11.3723933,6.90219109 C11.4012897,6.76170521 11.3642229,6.61572143 11.2718095,6.50605213 C11.1793961,6.39638284 11.0418303,6.33512569 10.8985134,6.33982583 L6.17463011,6.33982583 C5.85256993,6.35159434 5.58177065,6.58526241 5.52290174,6.90219109 L5.52290174,6.90219109 C5.49447168,7.04261064 5.53171122,7.188329 5.62402262,7.29787726 C5.71633403,7.40742553 5.85360909,7.46880802 5.9967817,7.46455635 Z" id="Path_32" fill="url(#linearGradient-24)"></path>
                        </g>
                        <g id="Group_10" transform="translate(26.543820, 21.985039)">
                            <path d="M0.816229626,1.13620737 L11.388457,1.13620737 C11.7105172,1.12443885 11.9813165,0.890770788 12.0401854,0.573842104 L12.0401854,0.573842104 C12.0690285,0.433558938 12.0321019,0.287786863 11.9399542,0.178167444 C11.8478065,0.0685480248 11.7105718,0.00713687741 11.5674529,0.0114768421 L0.995225445,0.0114768421 C0.673165267,0.0232453545 0.402365988,0.256913421 0.343497078,0.573842104 L0.343497078,0.573842104 C0.314654006,0.714125271 0.351580585,0.859897346 0.443728288,0.969516765 C0.535875991,1.07913618 0.67311069,1.14054733 0.816229626,1.13620737 Z" id="Path_33" fill="url(#linearGradient-25)"></path>
                            <path d="M0.482333579,3.24565094 L11.0568558,3.24565094 C11.378916,3.23388243 11.6497153,3.00021436 11.7085842,2.68328568 L11.7085842,2.68328568 C11.7374806,2.5427998 11.7004138,2.39681602 11.6080004,2.28714672 C11.515587,2.17747742 11.3780212,2.11622027 11.2347042,2.12092042 L0.661329398,2.12092042 C0.33926922,2.13268893 0.0684699408,2.366357 0.00960103077,2.68328568 L0.00960103077,2.68328568 C-0.0192420411,2.82356885 0.0176845375,2.96934092 0.109832241,3.07896034 C0.201979944,3.18857976 0.339214643,3.24999091 0.482333579,3.24565094 Z" id="Path_34" fill="url(#linearGradient-26)"></path>
                            <path d="M5.9967817,5.35509452 L10.7206649,5.35509452 C11.0427251,5.34332601 11.3135244,5.10965794 11.3723933,4.79272926 L11.3723933,4.79272926 C11.4012897,4.65224337 11.3642229,4.50625959 11.2718095,4.3965903 C11.1793961,4.286921 11.0418303,4.22566385 10.8985134,4.23036399 L6.17463011,4.23036399 C5.85300626,4.24265761 5.58282181,4.47620633 5.52404915,4.79272926 L5.52404915,4.79272926 C5.49520608,4.93301242 5.53213266,5.0787845 5.62428036,5.18840392 C5.71642806,5.29802334 5.85366276,5.35943448 5.9967817,5.35509452 Z" id="Path_35" fill="url(#linearGradient-27)"></path>
                        </g>
                    </g>
                    <polygon id="Path_36" fill="url(#linearGradient-28)" fill-rule="nonzero" opacity="0.3" style="mix-blend-mode: screen;" points="367.839409 190 285.16404 190 223 0 430 0"></polygon>
                    <polygon id="Path_37" fill="url(#linearGradient-29)" fill-rule="nonzero" opacity="0.15" style="mix-blend-mode: screen;" points="379.363497 190 272.636503 190 184 0 468 0"></polygon>
                    <g id="Group_13" transform="translate(264.000000, 189.000000)">
                        <rect id="Rectangle_5" fill="url(#linearGradient-30)" fill-rule="nonzero" x="5.38530994" y="0" width="114.22938" height="132.94351"></rect>
                        <rect id="Rectangle_6" fill="url(#linearGradient-31)" fill-rule="nonzero" x="28.4214454" y="0" width="68.1559575" height="132.94351"></rect>
                        <rect id="Rectangle_7" fill="url(#linearGradient-32)" fill-rule="nonzero" x="0" y="0" width="125" height="16.5791741" rx="0.712"></rect>
                        <rect id="Rectangle_8" fill="url(#linearGradient-33)" fill-rule="nonzero" style="mix-blend-mode: color-burn;" x="5.38530994" y="16.5791741" width="114.22938" height="6.12741189"></rect>
                        <g id="Group_12" transform="translate(47.461211, 16.579174)" stroke="#707070" stroke-width="1.067">
                            <line x1="0.575845802" y1="0" x2="0.575845802" y2="116.420826" id="Line_1"></line>
                            <line x1="15.038789" y1="0" x2="15.038789" y2="116.420826" id="Line_2"></line>
                            <line x1="29.5017321" y1="0" x2="29.5017321" y2="116.420826" id="Line_3"></line>
                        </g>
                    </g>
                    <path d="M379.530865,83.9845607 C378.990653,81.8852773 378.295787,79.8291266 377.451998,77.8330664 C376.79451,76.2803226 376.045566,74.7681636 375.209132,73.3045935 C374.468402,72.0088362 373.658787,70.7539446 372.783787,69.5453469 C371.970084,68.4206297 371.100079,67.3379993 370.177119,66.3016211 C369.823712,65.9054232 369.462605,65.5161761 369.093798,65.1338798 L362.218523,58 C362.58733,58.3807516 362.948437,58.7699987 363.301844,59.1677413 C364.224799,60.2041233 365.094804,61.2867535 365.908512,62.4114671 C366.783523,63.6200571 367.593139,64.8749494 368.333857,66.1707136 C369.170762,67.6340311 369.91972,69.1462187 370.576723,70.6991866 C371.420492,72.6952543 372.115358,74.7514035 372.65559,76.8506809 C374.437979,83.973305 374.600601,91.406825 373.13142,98.6010209 C372.756013,100.516866 372.280686,102.411642 371.707396,104.277541 C371.007967,106.553967 370.167864,108.784485 369.191967,110.956141 C368.428946,112.655235 367.587775,114.315714 366.668454,115.937577 C365.840757,117.397254 364.955313,118.819859 364.012124,120.205393 C363.121291,121.512151 362.181951,122.782997 361.194104,124.01793 C360.230896,125.22197 359.224955,126.388166 358.176282,127.51652 C357.127609,128.644873 356.038129,129.735769 354.907841,130.789207 C353.745216,131.870449 352.544093,132.906511 351.304472,133.897392 C349.978617,134.956236 348.613494,135.960247 347.209104,136.909423 C345.645334,137.963634 344.038447,138.94293 342.388443,139.847312 C340.369904,140.953174 338.289513,141.941445 336.157616,142.807211 C328.880479,145.810648 321.035063,147.176147 313.174588,146.80742 C302.166204,146.410342 291.726989,141.801254 284,133.926353 L290.875275,141.059075 C298.601875,148.934698 309.041237,153.544264 320.049863,153.9413 C327.91029,154.309272 335.755545,152.943801 343.032891,149.941091 C345.164029,149.074866 347.243646,148.086209 349.261408,146.980033 C350.909872,146.077968 352.516759,145.098672 354.082069,144.042144 C355.484919,143.09683 356.850042,142.092819 358.177437,141.030113 C359.415518,140.040777 360.616641,139.004715 361.780806,137.921929 C362.908014,136.872352 363.997494,135.781456 365.049247,134.649241 C366.101,133.517026 367.10694,132.35083 368.067069,131.150651 C369.053376,129.914946 369.992716,128.6441 370.885089,127.338115 C371.829048,125.953353 372.714492,124.530747 373.541419,123.070298 C374.45843,121.448435 375.299601,119.787957 376.064932,118.088862 C377.04158,115.918038 377.882454,113.688292 378.582671,111.412579 C379.155961,109.546681 379.631288,107.651905 380.006695,105.736059 C381.476051,98.5414901 381.313429,91.1075541 379.530865,83.9845607 L379.530865,83.9845607 Z" id="Path_38" fill="url(#linearGradient-34)" fill-rule="nonzero"></path>
                    <g id="Group_14" transform="translate(272.000000, 46.000000)" fill="url(#linearGradient-35)" fill-rule="nonzero">
                        <path d="M60.9439913,0.0686521128 C88.5618485,1.50852917 106.502255,25.2544347 101.011708,53.1131255 C95.5211605,80.9718163 68.688492,102.372319 41.0694801,100.931293 C13.4504682,99.4902671 -4.5003307,75.7455107 0.986752563,47.8960131 C6.47383582,20.0465154 33.3157419,-1.37237409 60.9439913,0.0686521128 Z" id="Path_39"></path>
                    </g>
                    <g id="Group_15" style="mix-blend-mode: screen;" transform="translate(278.000000, 52.000000)" fill="url(#linearGradient-36)" fill-rule="nonzero">
                        <path d="M53.7728211,0.0604544395 C78.1417723,1.32986063 93.967367,22.2538869 89.130201,46.8029893 C84.293035,71.3520916 60.6070456,90.2088974 36.2380944,88.9394912 C11.8691432,87.670085 -3.97027193,66.7460587 0.870349174,42.2061135 C5.71097027,17.6661682 29.3946563,-1.20895175 53.7728211,0.0604544395 Z" id="Path_40"></path>
                    </g>
                    <g id="Group_28" transform="translate(298.001155, 89.966541)" fill="#FFFFFF" fill-rule="nonzero">
                        <g id="Group_26">
                            <polygon id="Path_50" points="6.8146437 0.351663859 0 0 2.1483453 2.18964811 8.962989 2.54131197"></polygon>
                        </g>
                    </g>
                    <g id="Group_30" transform="translate(261.000000, 28.000000)" fill-rule="nonzero">
                        <ellipse id="Ellipse_1" fill="url(#linearGradient-37)" cx="25.4207303" cy="4.89229052" rx="4.90934619" ry="4.89229052"></ellipse>
                        <path d="M39.0459197,135.739574 C39.0459197,139.201016 36.230084,142.00707 32.7565746,142.00707 C29.2830652,142.00707 26.4672295,139.201016 26.4672295,135.739574 C26.4672295,132.278132 29.2830652,129.472079 32.7565746,129.472079 C36.229821,129.472712 39.0452848,132.278394 39.0459197,135.739574 Z" id="Path_53" fill="url(#linearGradient-38)" opacity="0.5"></path>
                        <path d="M110.060665,120.512621 C110.060665,121.800465 109.013133,122.844528 107.7208,122.844739 C106.428466,122.844949 105.380592,121.801228 105.380168,120.513385 C105.379745,119.225541 106.426933,118.181136 107.719266,118.180503 C108.340138,118.180199 108.935685,118.425769 109.374815,118.863159 C109.813946,119.300549 110.060665,119.893906 110.060665,120.512621 Z" id="Path_54" fill="url(#linearGradient-39)"></path>
                        <path d="M72.221094,152.10451 C72.221094,153.15136 71.3694955,154 70.3189955,154 C69.2684955,154 68.416897,153.15136 68.416897,152.10451 C68.416897,151.057659 69.2684955,150.209019 70.3189955,150.209019 C71.3694955,150.209019 72.221094,151.057659 72.221094,152.10451 Z" id="Path_55" fill="url(#linearGradient-40)"></path>
                        <path d="M3.80419705,54.1429528 C3.80419705,55.1898033 2.95259853,56.0384432 1.90209853,56.0384432 C0.851598517,56.0384432 0,55.1898033 0,54.1429528 C0,53.0961024 0.851598517,52.2474624 1.90209853,52.2474624 C2.95259853,52.2474624 3.80419705,53.0961024 3.80419705,54.1429528 Z" id="Path_56" fill="url(#linearGradient-40)"></path>
                        <path d="M95.5476759,6.78778092 C95.5476759,7.83463136 94.6960774,8.68327132 93.6455774,8.68327132 C92.5950774,8.68327132 91.7434789,7.83463136 91.7434789,6.78778092 C91.7434789,5.74093048 92.5950774,4.89229052 93.6455774,4.89229052 C94.6960774,4.89229052 95.5476759,5.74093048 95.5476759,6.78778092 Z" id="Path_57" fill="url(#linearGradient-40)"></path>
                        <ellipse id="Ellipse_2" fill="url(#linearGradient-41)" opacity="0.2" cx="96.5240252" cy="139.137476" rx="2.87844777" ry="2.86844769"></ellipse>
                        <path d="M129,45.1307784 C129,46.7130795 127.71282,47.9957881 126.125002,47.9957881 C124.537185,47.9957881 123.250004,46.7130795 123.250004,45.1307784 C123.250004,43.5484772 124.537185,42.2657687 126.125002,42.2657687 C127.71282,42.2657687 129,43.5484772 129,45.1307784 L129,45.1307784 Z" id="Path_58" fill="url(#linearGradient-42)" opacity="0.3"></path>
                    </g>
                    <g id="Group_34" transform="translate(393.000000, 75.000000)" fill-rule="nonzero">
                        <path d="M82.032864,47.8461921 C81.8934662,47.7488264 81.7194801,47.7141564 81.5532194,47.750614 C81.5557321,47.6820189 81.5322098,47.6149992 81.4873405,47.5629125 C81.3001057,47.3832718 80.6921707,47.5272147 80.0276029,47.6987946 C80.0854451,47.5991583 80.0703797,47.4734472 79.9906183,47.3901811 C79.7016757,47.1414478 79.1237907,47.3901811 79.1237907,47.3901811 L75.3293976,49.0564637 L75.1907052,49.2291952 C75.0374301,49.3187687 74.8923953,49.4216558 74.7572914,49.5366571 C74.2172746,50.0332442 73.7182938,50.5723752 73.2651922,51.1488173 C72.2705341,52.3690486 70.9795884,53.3159791 69.5147184,53.8998534 L54.3105631,60.0295165 L66.4866008,60.8425058 C66.4866008,60.8425058 71.6112853,57.5801846 73.1137863,57.2727227 C74.6162874,56.9652607 76.5810966,57.0619903 77.3716433,56.236334 C78.16219,55.4106777 80.2668473,53.3954776 80.1940338,52.5364265 C80.1408684,51.9019264 79.5803199,52.0470208 79.3942409,52.1287803 C78.6510472,52.618132 77.9417298,53.1567343 77.2710913,53.7409404 C76.9532545,53.9413089 75.7489421,54.1727691 75.3467341,53.6349985 L77.4167183,51.4919771 C78.3301376,50.7559915 79.3079859,50.1031368 80.3385051,49.5412633 C81.7635695,48.8077305 82.3218065,48.0960769 82.032864,47.8461921 Z" id="Path_59" fill="#EFCDAF"></path>
                        <g id="Group_32" transform="translate(51.060327, 227.059670)">
                            <path d="M1.43336574,1.82519557 L1.8286391,10.5654065 C1.8286391,10.5654065 6.80885233,12.7026703 10.7650533,10.5654065 L11.8260502,0" id="Path_60" fill="#EFCDAF"></path>
                            <path d="M1.82632756,10.5677096 C0.917230402,11.5590885 0.315175885,12.7911856 0.0926724566,14.1156135 C-0.0578545836,15.8991754 -0.0249365554,17.6933989 0.190912912,19.4702882 C0.190912912,19.7005967 5.95358248,19.5854425 11.8260502,19.6211403 C17.9516316,19.6614443 24.2089707,19.8514489 24.6932384,19.6211403 C25.6409698,19.1881601 10.7650533,10.5631035 10.7650533,10.5631035 C7.81749493,11.1770274 4.7745217,11.1785954 1.82632756,10.5677096 L1.82632756,10.5677096 Z" id="Path_61" fill="url(#linearGradient-43)"></path>
                        </g>
                        <g id="Group_33" transform="translate(0.000000, 225.298960)">
                            <path d="M7.13434041,0 L4.60089242,8.37747494 C4.60089242,8.37747494 8.15141808,11.9818044 12.595354,11.2713024 L16.8832609,1.00299391" id="Path_62" fill="#EFCDAF"></path>
                            <path d="M1.78428076,11.1515419 C2.43462362,9.97528615 3.41288259,9.01180371 4.60089242,8.37747494 C5.74741633,9.39428737 12.8137945,11.3634258 12.8137945,11.3634258 C12.8137945,11.3634258 12.7976138,11.6651301 14.1209705,13.0009199 C15.1334251,14.02349 16.3273355,15.2717626 17.6137076,16.3830015 C18.2886774,16.5787638 25.3111363,20.9753548 24.3599375,21.4025772 C23.4087388,21.8297997 17.0878322,21.6996753 14.8363922,21.6087034 C14.3047379,21.5868241 6.97715569,18.6388742 4.52576737,17.7406707 C2.07437905,16.8424672 -0.149322561,15.7346828 0.00786216873,15.2890357 C0.497060539,13.868217 1.09081194,12.4852982 1.78428076,11.1515419 L1.78428076,11.1515419 Z" id="Path_63" fill="url(#linearGradient-44)"></path>
                        </g>
                        <path d="M50.4699392,110.062906 C50.4699392,110.062906 46.7714749,143.243465 44.8355601,160.03987 C44.1941077,165.518911 43.750292,169.240698 43.67979,169.523978 C42.5332661,173.884871 40.7903648,179.22803 38.7851038,184.954653 C31.2148098,206.464324 19.8512785,232.743685 19.8512785,232.743685 C19.8512785,232.743685 11.0061701,231.308863 5.87686258,227.697624 L18.8110854,167.883029 C18.8110854,167.883029 18.1083772,119.801505 17.7500885,111.828221 L50.4699392,110.062906 Z" id="Path_64" fill="url(#linearGradient-45)"></path>
                        <path d="M44.8355601,160.036415 C44.1941077,165.515457 43.750292,169.237243 43.67979,169.520523 C42.5332661,173.881416 40.7903648,179.224575 38.7851038,184.951199 C38.4025439,178.894083 36.0112556,138.889481 36.0112556,138.889481 L44.8355601,160.036415 Z" id="Path_65" fill="url(#linearGradient-46)" opacity="0.35" style="mix-blend-mode: color-burn;"></path>
                        <path d="M69.0061795,14.5550855 C68.0815635,19.5712066 65.4360058,30.0709752 62.7014538,33.9712511 C62.3219013,34.51474 61.6493218,34.7744057 61.001316,34.6276306 C58.0148062,33.953978 48.1121682,30.8643882 46.3230361,19.2867755 C44.2195346,5.62026375 54.2342823,2.95789645 58.9128395,4.1013786 C63.5913967,5.24486075 70.5687807,6.12463956 69.0061795,14.5550855 Z" id="Path_66" fill="#EFCDAF"></path>
                        <path d="M64.4062146,107.094228 L66.3906719,164.602283 L63.7520488,234.424938 C63.7520488,234.424938 54.8318154,235.955339 48.3525684,234.91895 C48.3525684,234.91895 42.458141,181.016376 42.136837,173.359767 C41.7265386,163.534803 30.0451705,113.083403 30.319088,106.660097" id="Path_67" fill="url(#linearGradient-47)"></path>
                        <path d="M58.7972625,31.1373039 C57.9003937,34.5449491 57.2255578,38.0067963 56.7769764,41.5011905 C56.7769764,41.5011905 48.2601068,41.2110016 43.3353705,38.5463313 C45.6097624,32.7509831 47.0385725,26.6607102 47.5782024,20.4613493" id="Path_68" fill="#EFCDAF"></path>
                        <path d="M74.6324682,8.71906582 C74.2975441,7.85766227 73.6122487,7.17780197 72.7462515,6.84780853 C72.0774768,6.711824 71.4171914,6.53726339 70.7687289,6.32500803 C69.1506508,5.53504957 69.0905507,3.16632573 67.7325209,1.99290346 C67.2582231,1.61651794 66.7108396,1.34206284 66.1248447,1.1868234 C64.6581872,0.739160406 63.1138831,0.601493254 61.5907588,0.782631825 C60.9088822,0.922080262 60.209445,0.955486953 59.5173073,0.881664519 C59.1426023,0.790801265 58.7761192,0.66908703 58.4216372,0.517776947 C56.9806845,-0.070213859 55.3835477,-0.16021834 53.8852397,0.262134413 C53.2879274,0.457535916 52.7352775,0.768658728 52.2590712,1.17761106 C47.449912,2.85656067 48.922363,6.06591087 48.922363,6.06591087 C45.5856548,6.8121107 43.4521033,8.56706215 43.3434609,14.6702398 C43.2348185,20.7734174 44.2033538,28.4783913 45.0123929,29.570054 C45.8214319,30.6617167 52.7560524,32.5640656 56.0916048,30.9668756 C57.1872748,30.4394689 60.468506,20.7262041 60.8418198,19.6713908 C60.9034077,19.4146591 61.0281224,19.1772224 61.2047316,18.980465 C61.5617602,18.7680238 61.986531,18.6988599 62.3928632,18.7870058 C63.3924575,18.8063272 64.3760419,18.5350201 65.2233441,18.0062597 C66.3149466,18.1098771 67.4159831,17.9686194 68.445631,17.5928558 C69.2067771,17.331744 69.8926481,16.8898705 70.4439575,16.3054308 C70.7278759,15.9866023 70.9469084,15.6158436 71.0888772,15.213768 C72.8878637,14.6517729 74.2762412,13.2164043 74.7734722,11.404464 C75.006793,10.5163892 74.9575223,9.57803574 74.6324682,8.71906582 Z" id="Path_69" fill="url(#linearGradient-48)"></path>
                        <path d="M16.9491398,114.813021 C18.5406352,115.70086 52.4717329,117.661938 64.7656591,114.237249 C64.7656591,114.237249 64.6697302,106.482759 64.7656591,102.668849 C64.8061111,101.023294 66.8934318,61.7752556 66.2762506,51.4102175 C66.2762506,51.4102175 63.1406464,42.641218 56.6255705,40.7757184 C51.4767839,39.3550449 46.2419992,38.2642225 40.9533284,37.5099426 C37.562299,38.123715 30.881948,44.7646632 28.5727194,50.8678408 C21.5190547,69.509018 15.6384966,114.089852 16.9491398,114.813021 Z" id="Path_70" fill="url(#linearGradient-49)"></path>
                        <path d="M110.628927,57.4247263 C110.476365,57.443151 110.008278,57.549093 109.37954,57.7057028 C109.726271,57.2554495 109.624563,56.7706499 109.318284,56.8685311 C108.895272,57.0032616 106.621872,57.6550349 106.043987,57.9429207 C105.466102,58.2308064 103.541745,59.4802305 103.541745,59.4802305 L103.541745,59.4802305 C103.340521,59.5598623 103.147077,59.6577723 102.96386,59.7727224 C101.93638,60.4901337 100.96091,62.6907322 99.6756941,63.7651218 C98.6750477,64.5545622 97.6108382,65.2605417 96.4938591,65.8759 L75.3247745,71.5967654 L70.546821,61.7694979 L55.6235179,65.0456376 C55.6235179,65.0456376 64.1762164,80.9369302 68.3970887,84.0357323 C69.928484,85.1584867 93.4484049,72.7367929 98.9360012,69.8130254 L98.9360012,69.8130254 C99.8802654,69.3109526 103.535966,68.5578436 104.518371,67.175992 C105.055627,66.4679419 105.472264,65.6766212 105.751577,64.8337537 L107.485232,62.7414001 C107.485232,62.7414001 109.437328,61.4251865 109.592201,60.847112 C109.682723,60.6210175 109.57753,60.3640832 109.354113,60.2655828 L110.008278,59.7865409 C110.779177,59.0760389 110.297221,58.634998 110.297221,58.634998 C111.04616,58.2503826 111.258822,57.3487245 110.628927,57.4247263 Z" id="Path_71" fill="#EFCDAF"></path>
                        <path d="M50.3220006,51.0912401 C49.9325061,55.4671033 56.3909492,71.1108143 56.3909492,71.1108143 C56.3909492,71.1108143 65.4926385,69.4191977 71.9580163,63.5106308 C71.9580163,63.5106308 66.3721795,49.2038612 63.6931045,46.490826 C60.4303656,43.1870493 50.9299356,44.238408 50.3220006,51.0912401 Z" id="Path_72" fill="url(#linearGradient-50)"></path>
                    </g>
                    <g id="Group_41" transform="translate(134.000000, 76.000000)" fill-rule="nonzero">
                        <g id="Group_40">
                            <g id="Group_38" transform="translate(0.000000, 98.154854)">
                                <path d="M68.1626027,137.835198 L61.0931494,138.712559 L58.1312033,122.338587 L67.5158596,121.85231 C67.5158596,121.85231 67.9699558,137.194093 68.1626027,137.835198 Z" id="Path_77" fill="#EFCDAF"></path>
                                <path d="M16.0756961,124.716064 C16.0756961,124.716064 11.6471107,136.921136 11.5943622,137.609263 L3.61900969,135.119391 L6.67269246,122.503737 L16.0756961,124.716064 Z" id="Path_78" fill="#EFCDAF"></path>
                                <path d="M67.5582878,70.776114 C65.9230825,56.8702224 62.6664324,18.6161181 61.2926765,5.66901626 L36.7944119,-6.51924471e-14 C24.92828,25.1969021 37.2645621,31.4439447 40.1198644,37.0131826 C40.7700477,38.2908044 41.8972615,50.620886 46.1504006,69.4996392 C48.813056,97.1210407 53.1693988,130.523852 53.1693988,130.523852 C53.1693988,130.523852 65.1307074,130.975722 69.1751457,128.826474 L67.5582878,70.776114 Z" id="Path_79" fill="url(#linearGradient-51)"></path>
                                <path d="M21.9881213,4.87996443 C21.9881213,4.87996443 16.025241,15.270676 16.8669245,24.4846911 C17.6076977,32.3981469 19.16034,55.7244916 20.2737932,68.4307492 C14.1756013,87.733847 5.20375982,125.560166 5.20375982,125.560166 C8.36879834,127.12985 11.6929912,128.355605 15.1193418,129.216412 C16.4862175,129.604057 21.2301475,130.278421 22.0787112,130.019226 C22.0787112,130.019226 38.0626707,81.1691193 40.7482603,71.1844024 C47.102168,47.5587227 51.8942597,4.53590114 51.8942597,4.53590114 L21.9881213,4.87996443 Z" id="Path_80" fill="url(#linearGradient-52)"></path>
                                <path d="M84.9102696,140.165653 C85.3493967,140.330729 85.6913419,140.68409 85.841955,141.128443 C85.9925682,141.572795 85.9359675,142.061283 85.6877375,142.459408 C84.5146554,144.855236 75.2526968,147.342813 70.7656294,147.83253 L59.8719056,147.83253 L76.2595063,141.848122 C77.9228433,141.076602 79.6546415,140.462262 81.432305,140.013118 C82.5932965,139.911119 83.7626614,139.962405 84.9102696,140.165653 L84.9102696,140.165653 Z" id="Path_81" fill="url(#linearGradient-53)"></path>
                                <path d="M60.9750385,138.056545 C60.9750385,138.056545 65.6765403,138.28592 68.1259081,137.410853 C68.1259081,137.410853 74.1679113,139.475233 77.5289117,139.475233 C80.8899122,139.475233 84.0399184,139.450001 84.9068295,140.163359 C82.6214409,139.800946 80.3199984,140.476457 77.6057412,142.075204 C67.4115092,148.090578 59.8673188,147.830236 59.8673188,147.830236 C59.8673188,147.830236 58.8719765,141.159996 60.9750385,138.056545 Z" id="Path_82" fill="url(#linearGradient-54)"></path>
                                <path d="M23.1589099,147.845146 C23.6818087,143.785199 18.6603754,141.898585 15.5516507,141.338909 C13.5128043,140.267725 11.8374642,136.745664 11.8374642,136.745664 C8.99275424,136.665509 6.22128573,135.825629 3.81050989,134.313136 C2.79050579,135.229255 1.9784061,136.353145 1.42879787,137.609263 C0.7061279,139.224828 0.224720662,140.937825 0,142.693371 C0,142.693371 3.41718913,144.932076 5.60854766,146.206258 C7.79990619,147.480439 12.3362821,147.845146 12.3362821,147.845146 L23.1589099,147.845146 Z" id="Path_83" fill="url(#linearGradient-55)"></path>
                            </g>
                            <g id="Group_39" transform="translate(10.834437, 0.000000)">
                                <path d="M44.6581921,10.2845288 C46.504216,13.6446836 46.2924294,17.7598141 44.1112125,20.9126441 C42.729169,23.3572502 41.7240307,25.9965158 41.1297723,28.741231 C39.9452232,33.7290019 41.5047457,43.3937399 41.5047457,43.3937399 C41.5047457,43.3937399 35.1451045,44.2665138 32.3402573,42.9567795 C29.5354101,41.6470452 31.7783705,25.6859489 31.7783705,25.6859489 C31.7783705,25.6859489 33.7117198,16.770122 34.0236243,15.8962012 C34.3355288,15.0222804 39.9429297,8.35433371 39.9429297,8.35433371 L44.6581921,10.2845288 Z" id="Path_84" fill="url(#linearGradient-56)"></path>
                                <path d="M34.8045323,38.8784826 C34.7414633,38.3417438 34.8893886,29.2607665 34.8893886,29.2607665 L34.0763728,27.8936884 L30.3702134,21.6386176 C30.3702134,21.6386176 24.4233869,17.9686091 23.8202186,21.6386176 C23.3924966,24.3051082 23.6894939,38.5757069 23.6894939,38.5757069 L17.1658735,40.8637278 C19.4741962,46.8446948 27.6009141,47.4250149 27.6009141,47.4250149 C39.1425277,48.501933 44.0492902,41.124069 44.0492902,41.124069 C44.0492902,41.124069 34.9341102,39.3785212 34.8045323,38.8784826 Z" id="Path_85" fill="#EFCDAF"></path>
                                <path d="M26.9404104,26.8867298 C26.9404104,26.8867298 28.8542657,32.9066906 34.8137059,34.6854979 L34.8137059,32.4949615 L26.9404104,26.8867298 Z" id="Path_86" fill="#E8A77D"></path>
                                <path d="M86.977442,49.6809232 C86.8811185,49.1074844 86.7228729,48.6028582 86.4453696,48.4950517 C86.2673247,48.4330476 86.0810489,48.3978741 85.8926564,48.3906859 C86.3742737,47.7805469 86.9132264,47.1176517 87.1116068,46.8791011 C87.4900204,46.42035 89.0690369,44.7298524 89.1584802,44.030257 C89.2479234,43.3306616 88.464722,43.4636994 88.2502876,43.5967372 C87.3264611,44.2935269 86.4837117,45.0917763 85.7378509,45.9765084 C85.2126587,46.5591222 84.2035559,47.6647123 83.4960372,48.4377078 C83.9314685,47.6850623 84.3186877,46.9055293 84.6553588,46.1038118 C84.7367252,45.8013696 84.5872736,45.4844659 84.3021728,45.3549007 C82.9286014,46.4443629 81.7919294,47.8028735 80.9618131,49.3471818 C80.6683491,50.3335723 80.4788754,51.3479641 80.3964861,52.373792 C80.0492035,53.3667473 79.438843,54.246748 78.6305562,54.9198604 L68.9339954,62.8700163 L73.7134733,67.5309271 L82.3298354,58.2205743 C83.000204,57.5926531 83.7711772,57.0816962 84.6106372,56.7089895 C85.1539226,56.3862586 85.6141703,55.9408676 85.9545787,55.4084302 C86.1669589,55.0847639 86.3369141,54.735167 86.4602768,54.3682122 C86.5749476,54.6916317 86.847864,54.7902632 87.0336307,54.539097 C87.4550583,53.7582526 87.7595103,52.9197262 87.9372364,52.0503725 C87.9532903,51.6202933 88.0645209,50.1350868 87.7824308,49.8323111 C87.5464687,49.6729511 87.2551633,49.6181677 86.977442,49.6809232 L86.977442,49.6809232 Z" id="Path_87" fill="#EFCDAF"></path>
                                <path d="M44.5297718,8.63417186 C44.5297718,8.63417186 44.5790692,32.153192 38.0841165,33.043169 C35.1175835,33.4491637 28.9288017,30.1071622 25.7581547,25.3178011 C25.7581547,25.3178011 21.0096379,18.569573 21.7056895,11.229556 C22.4017411,3.88953899 41.5380002,-1.53633921 44.5297718,8.63417186 Z" id="Path_88" fill="#EFCDAF"></path>
                                <path d="M44.6880065,19.9836732 C44.6880065,19.9836732 46.0732294,15.3101467 44.4105032,12.7583439 C44.4105032,12.7583439 43.2569152,11.3694751 40.2364869,12.3374398 C38.034808,13.0427696 33.7002527,14.7149172 29.5434371,11.5346255 C29.5434371,11.5346255 30.0147339,16.9123348 26.1354216,19.4274375 C25.3893683,21.1376516 24.9284065,22.9585266 24.7708394,24.8177625 C24.6813961,27.1814773 24.2926622,33.118863 23.6894939,38.5802944 L15.7623032,41.2949538 C15.7623032,41.2949538 16.0615939,38.6514008 16.2897888,29.4029794 C16.5076632,20.5318807 13.6707082,9.92326235 21.5956056,6.7842582 C21.5956056,6.7842582 24.0369464,-1.5214298 35.2345477,0.247055552 C46.432149,2.0155409 51.3538187,11.0265587 44.6880065,19.9836732 Z" id="Path_89" fill="url(#linearGradient-57)"></path>
                                <path d="M28.3290735,18.5546636 C28.3290735,18.5546636 27.0046261,14.8124018 24.5552583,16.6875468 C22.7675409,18.0580656 23.1734754,24.5253087 26.3899907,24.7959718" id="Path_90" fill="#EFCDAF"></path>
                                <path d="M72.0140524,60.2895416 C72.0140524,60.2895416 65.6807854,65.0857839 60.4151034,68.7764362 C58.3361222,64.3861885 57.4336632,62.6073813 52.6312511,51.482668 C48.5237439,41.9635835 45.3771778,41.3901446 45.3771778,41.3901446 L41.707713,64.5570733 C41.707713,64.5570733 52.1783016,82.5768151 57.5987891,83.524136 C60.6754061,84.0620216 71.2090636,74.1484112 77.2487733,67.6318523 C76.2144586,65.134849 74.7665032,62.8301844 72.9658199,60.8148115 C72.669938,60.6035046 72.3505478,60.4272367 72.0140524,60.2895416 Z" id="Path_91" fill="url(#linearGradient-58)"></path>
                                <path d="M9.70997962,85.2467463 C10.0815129,90.2127265 6.53933266,112.465594 6.16665264,115.200897 C5.9992333,116.446406 6.55767998,116.806526 6.55767998,116.806526 C6.55767998,116.806526 33.1291922,124.636259 51.4317948,116.842079 C51.4317948,116.842079 52.1381668,116.581738 51.9524001,114.907296 C51.6175615,111.856602 48.9537593,75.8572589 48.9537593,75.8572589 C50.4512447,72.7591219 51.6533443,69.5266804 52.5441013,66.2028428 C53.2883147,62.5018686 49.084484,56.0655911 48.582226,53.2190408 C48.079968,50.3724905 45.3829114,41.3878509 45.3829114,41.3878509 C45.3829114,41.3878509 43.3761728,40.8144121 37.3651307,39.4530683 C37.3651307,39.4530683 33.4238961,49.7749672 20.6082902,39.4530683 C19.3251242,39.6950595 13.9321576,40.7146337 12.1226527,41.1091596 C11.9760663,41.1565009 11.8267137,41.1948021 11.6754367,41.2238474 C9.68542632,41.9594744 7.9707389,43.2911373 6.76523409,45.0372156 C5.03066537,51.736772 4.99125639,58.7628586 6.65056331,65.4814567 C8.17337247,71.9821127 9.19616861,78.5898639 9.70997962,85.2467463 Z" id="Path_92" fill="url(#linearGradient-59)"></path>
                                <path d="M15.1444444,65.9473879 L42.26938,65.948727 C42.8696716,65.948864 43.3562967,66.4354891 43.3564336,67.0357807 L43.3583872,106.609634 C43.3585241,107.209968 42.8718817,107.696658 42.2715482,107.696688 C42.2715124,107.696688 42.2714766,107.696688 42.2714409,107.696581 L15.1465053,107.695242 C14.5462137,107.695105 14.0595886,107.208479 14.0594516,106.608188 L14.0574981,67.0343342 C14.0573611,66.4340007 14.5440036,65.9473102 15.1443371,65.9472806 C15.1443729,65.9472806 15.1444086,65.9472806 15.1444444,65.9473879 Z" id="Rectangle_9" fill="#22256F" transform="translate(28.707943, 86.821984) rotate(-159.103000) translate(-28.707943, -86.821984) "></path>
                                <path d="M14.56662,65.9467271 L40.7771152,65.9473425 C41.6298146,65.9474351 42.321059,66.6386795 42.3211515,67.4913788 L42.3220592,106.15186 C42.3221517,107.004587 41.6308956,107.695876 40.7781679,107.695896 C40.7781437,107.695896 40.7781196,107.695896 40.7780954,107.695824 L14.5676002,107.695208 C13.7149009,107.695116 13.0236565,107.003871 13.0235639,106.151172 L13.0226563,67.4906908 C13.0225637,66.6379632 13.7138199,65.9466746 14.5665475,65.9466546 C14.5665717,65.9466546 14.5665958,65.9466546 14.56662,65.9467271 Z" id="Rectangle_10" fill="url(#linearGradient-60)" transform="translate(27.672358, 86.821275) rotate(-170.760000) translate(-27.672358, -86.821275) "></path>
                                <path d="M44.0768112,87.9315869 C44.5848028,87.9315869 45.121462,87.5932579 44.8852402,87.2904822 C44.6490184,86.9877065 41.4164492,85.5701658 40.6527418,85.8087163 C39.8890345,86.0472669 38.6884315,86.7514497 37.8800025,86.955594 C37.0476031,87.0645708 36.204552,87.0645708 35.3721526,86.955594 L24.6252075,84.6285792 L21.1954046,90.8412155 L36.4099231,91.7461019 C36.4099231,91.7461019 37.9430714,92.3849128 38.9911623,92.8471045 C39.0347372,92.8654545 39.0783121,92.870042 39.121887,92.8860983 C39.7972208,93.1690164 40.5097494,93.3532584 41.2375628,93.433159 C42.162956,93.451509 42.5643037,92.8723358 42.5815043,92.4835443 L42.5815043,92.4835443 C43.0906425,92.3631221 43.2924631,92.0591995 43.3050769,91.7598645 C43.3096388,91.6087368 43.2798402,91.4585452 43.2179271,91.3206103 C43.573811,91.2639695 43.8453166,90.9720814 43.8761374,90.6129868 C43.8807846,90.4505387 43.8465817,90.2893288 43.7763738,90.142767 C44.2751917,90.0211979 44.4712787,89.7172754 44.4838925,89.4213809 C44.488621,89.177675 44.4115031,88.9394221 44.2648713,88.7447231 C43.3754276,88.2221444 42.4073421,87.8468589 41.3981019,87.6333987 L41.409569,87.6333987 C42.2888395,87.8066249 43.1809992,87.9063652 44.0768112,87.9315869 L44.0768112,87.9315869 Z" id="Path_93" fill="#EFCDAF"></path>
                                <path d="M25.2650704,84.6538105 L11.5940205,81.452875 C13.3863247,74.4890338 15.7221684,63.9285844 17.1899543,57.3799129 C18.9937257,49.270341 16.8000737,42.0117523 12.1318264,41.1034252 C11.98524,41.1507665 11.8358874,41.1890677 11.6846104,41.218113 C9.64554867,41.7811278 7.86707072,43.0386189 6.65629685,44.7734337 C5.13313035,47.6674871 4.10229315,50.7949524 3.6060542,54.0275895 C3.6060542,54.0275895 -2.9989825,88.0588903 1.6692648,90.2815392 C5.71140965,92.2059999 22.2939506,94.4481457 22.2939506,94.4481457 C22.2939506,94.4481457 23.9291559,92.3837659 25.2364027,87.1299194 C25.513208,86.3293282 25.5232659,85.4605976 25.2650704,84.6538105 L25.2650704,84.6538105 Z" id="Path_94" fill="url(#linearGradient-61)"></path>
                            </g>
                        </g>
                    </g>
                    <line x1="0" y1="322.5" x2="656" y2="322.5" id="Line_12" stroke="#182E85"></line>
                </g>
                <g id="Group-2-Copy" transform="translate(300.000000, 72.000000)">
                    <polygon id="Fill-4" fill="#C7852D" points="49 14.6859305 42.0282027 14.6859305 42.0282027 12.164018 27.9856628 7.78496186 27.9856628 49.1610774 24.4996463 51 21.0143372 49.1610774 21.0143372 7.78453256 6.9717973 12.164018 6.9717973 14.6859305 -5.90847832e-14 14.6859305 -8.70414851e-14 8.50012514 24.4996463 -1.3257364e-13 49 8.50012514"></polygon>
                    <path d="M29.7420584,35.3628903 L9.04339314,35.3628903 L0,18 L49,18 L45.5834958,24.076842 L9.80861822,24.0768451 L12.4672465,29.2860558 L27.604,29.286 L27.6182159,29.2788467 L43.0483517,29.2788467 L33.6093088,46 L15.0024951,46 L11.6275283,39.923158 L30.0415236,39.9231549 L32.601728,35.3556812 L29.754,35.355 L29.7420584,35.3628903 Z" id="Combined-Shape" fill="#F9B84D" fill-rule="nonzero"></path>
                    <rect id="Rectangle-Copy-5" fill="#C7852D" x="21" y="26" width="7" height="10"></rect>
                </g>
            </g>
        </g>
    </g>
</svg>